<svg width="405" height="51" viewBox="0 0 405 51" fill="none" xmlns="http://www.w3.org/2000/svg">
<path fill-rule="evenodd" clip-rule="evenodd" d="M178.308 3.60824C178.08 3.56962 177.829 3.55462 177.749 3.57489C177.67 3.59521 177.557 3.59896 177.499 3.58328C177.441 3.5676 177.283 3.58021 177.148 3.61131C177.013 3.64239 176.853 3.65466 176.794 3.63854C176.734 3.62243 176.643 3.63922 176.591 3.67584C176.538 3.71246 176.451 3.73022 176.395 3.71529C176.34 3.70038 176.215 3.72194 176.118 3.7632C176.021 3.80448 175.908 3.8293 175.867 3.81835C175.827 3.80741 175.727 3.83288 175.646 3.87491C175.564 3.91696 175.392 3.97495 175.263 4.00384C174.781 4.11128 173.339 4.87395 172.619 5.40151C171.711 6.06734 170.613 7.25532 170.055 8.17667C169.985 8.29281 169.881 8.4356 169.824 8.49397C169.767 8.5524 169.697 8.68564 169.669 8.79007C169.641 8.89455 169.557 9.04635 169.482 9.12742C169.407 9.20848 169.273 9.46392 169.186 9.69507C169.098 9.92614 168.974 10.169 168.91 10.2348C168.815 10.332 168.65 10.8949 168.027 13.2496C167.375 15.7186 167.262 16.1993 167.263 16.5139C167.264 16.7168 167.223 17.0927 167.172 17.3492C167.121 17.6057 167.091 17.9293 167.105 18.0682C167.119 18.2072 167.096 18.4533 167.055 18.6152C167.013 18.7771 166.988 19.019 166.998 19.1527C167.008 19.2865 166.998 19.5403 166.975 19.7167C166.952 19.8932 166.952 20.1197 166.974 20.2202C166.996 20.3206 166.99 20.4951 166.96 20.608C166.93 20.721 166.92 20.917 166.937 21.0437C166.955 21.1705 166.957 21.4121 166.943 21.5807C166.928 21.7493 166.922 21.9717 166.929 22.075C166.936 22.1782 166.947 22.4714 166.953 22.7265C166.959 22.9816 166.97 23.2747 166.977 23.3779C166.983 23.481 166.985 23.6887 166.98 23.8394C166.975 23.9901 166.993 24.1739 167.02 24.2479C167.047 24.3217 167.053 24.4411 167.034 24.513C167.015 24.5849 167.026 24.754 167.058 24.8887C167.09 25.0235 167.105 25.1763 167.091 25.2283C167.077 25.2804 167.085 25.4072 167.108 25.5104C167.132 25.6134 167.139 25.743 167.125 25.7984C167.11 25.8537 167.125 26.0092 167.157 26.144C167.189 26.2787 167.204 26.4296 167.191 26.4792C167.178 26.5288 167.192 26.6297 167.222 26.7035C167.253 26.7772 167.269 26.8767 167.258 26.9246C167.248 26.9724 167.262 27.1283 167.29 27.2709C167.317 27.4135 167.332 27.5628 167.323 27.6026C167.313 27.6424 167.332 27.7852 167.364 27.92C167.396 28.0547 167.415 28.1955 167.405 28.2328C167.395 28.2701 167.403 28.3834 167.423 28.4844C167.443 28.5854 167.475 28.7691 167.494 28.8925C167.513 29.0158 167.575 29.3783 167.633 29.6978C167.738 30.2842 167.761 30.4285 167.833 30.9492C167.887 31.3383 168.069 31.6892 168.241 31.7356C168.427 31.7857 168.645 31.6509 168.74 31.4284C168.782 31.3281 168.931 30.9866 169.07 30.6694C169.209 30.3523 169.362 29.9435 169.41 29.761C169.457 29.5786 169.559 29.3483 169.636 29.2494C169.712 29.1504 169.838 28.9019 169.915 28.6972C169.992 28.4924 170.104 28.2835 170.163 28.2329C170.223 28.1824 170.3 28.0373 170.335 27.9106C170.37 27.784 170.476 27.5907 170.57 27.4812C170.665 27.3717 170.761 27.2163 170.784 27.1359C170.806 27.0555 170.876 26.95 170.939 26.9014C171.002 26.8528 171.071 26.7483 171.093 26.6693C171.115 26.5903 171.211 26.4435 171.306 26.343C171.4 26.2425 171.49 26.1135 171.505 26.0564C171.521 25.9993 171.584 25.9127 171.647 25.8641C171.71 25.8155 171.771 25.7426 171.783 25.7022C171.804 25.6309 172.069 25.302 172.645 24.6322C172.879 24.3603 173.6 23.61 173.797 23.4338C174.213 23.0612 174.409 22.8977 174.571 22.7873C174.677 22.7146 174.886 22.549 175.034 22.4191C175.388 22.1105 177.652 20.8166 178.134 20.6482C178.34 20.5761 178.593 20.4725 178.696 20.418C178.8 20.3634 179.016 20.2805 179.178 20.2337C179.339 20.187 179.573 20.1043 179.696 20.0499L179.92 19.9511L179.919 20.1068C179.917 20.2009 179.832 20.3869 179.704 20.577C179.586 20.7499 179.463 20.9957 179.429 21.1232C179.395 21.2508 179.313 21.4152 179.247 21.4887C179.182 21.5621 179.073 21.7683 179.006 21.9468C178.939 22.1253 178.846 22.2986 178.799 22.3318C178.751 22.3651 178.658 22.5383 178.591 22.7169C178.524 22.8954 178.415 23.1016 178.35 23.175C178.284 23.2485 178.209 23.3863 178.184 23.4812C178.159 23.5762 178.051 23.7707 177.945 23.9136C177.839 24.0564 177.732 24.251 177.707 24.3459C177.682 24.4409 177.606 24.5787 177.539 24.6523C177.472 24.7258 177.363 24.9094 177.298 25.0603C177.233 25.2112 177.131 25.376 177.071 25.4265C177.012 25.477 176.938 25.6091 176.908 25.7202C176.877 25.8312 176.771 26.0206 176.672 26.141C176.573 26.2615 176.472 26.4359 176.447 26.5286C176.422 26.6213 176.348 26.7572 176.283 26.8308C176.217 26.9042 176.116 27.0774 176.06 27.2156C176.003 27.3537 175.896 27.5322 175.822 27.6122C175.749 27.6921 175.664 27.8485 175.634 27.9596C175.604 28.0708 175.531 28.2031 175.472 28.2536C175.412 28.3042 175.308 28.4801 175.241 28.6445C175.173 28.809 175.062 29.0055 174.992 29.0812C174.923 29.1568 174.844 29.3048 174.816 29.4099C174.788 29.515 174.674 29.7337 174.563 29.896C174.452 30.0582 174.338 30.2752 174.309 30.3781C174.28 30.481 174.203 30.6197 174.137 30.6863C174.07 30.7529 173.983 30.9262 173.944 31.0716C173.904 31.2169 173.776 31.4832 173.66 31.6634C173.543 31.8459 173.408 32.1489 173.355 32.3471C173.303 32.5428 173.188 32.8192 173.1 32.9612C172.867 33.3348 172.23 35.7307 172.275 36.0595C172.293 36.1856 172.286 36.3697 172.259 36.4688C172.233 36.5678 172.238 36.7591 172.27 36.8939C172.302 37.0287 172.315 37.1874 172.3 37.2467C172.284 37.306 172.301 37.3971 172.338 37.4492C172.376 37.5013 172.394 37.5908 172.378 37.6481C172.363 37.7055 172.37 37.7732 172.394 37.7985C172.418 37.8238 172.479 38.0029 172.53 38.1964C172.641 38.6212 173.314 39.792 173.629 40.1098C173.754 40.2358 173.882 40.3821 173.913 40.4349C173.944 40.4877 174.016 40.5435 174.073 40.559C174.13 40.5745 174.199 40.6345 174.226 40.6925C174.253 40.7504 174.304 40.8059 174.34 40.8157C174.376 40.8256 174.471 40.8946 174.553 40.9692C174.753 41.152 175.292 41.5438 175.46 41.6288C175.535 41.6666 175.69 41.7652 175.803 41.8479C175.917 41.9306 176.088 42.0207 176.183 42.0481C176.277 42.0756 176.472 42.1708 176.615 42.2598C176.977 42.4846 180.522 43.449 180.892 43.4231C181.026 43.4138 181.319 43.4364 181.543 43.4736C181.767 43.5108 182.033 43.5233 182.135 43.5015C182.237 43.4797 182.406 43.4849 182.51 43.5132C182.691 43.5619 183.267 43.5532 183.725 43.4948C183.841 43.4801 183.986 43.4818 184.049 43.4987C184.111 43.5155 184.273 43.5039 184.408 43.4728C184.543 43.4417 184.686 43.4252 184.727 43.436C184.767 43.4469 184.91 43.4303 185.045 43.3992C185.181 43.3682 185.334 43.3542 185.386 43.3683C185.438 43.3824 185.523 43.3639 185.575 43.3273C185.627 43.2907 185.717 43.2733 185.774 43.2888C185.831 43.3043 185.927 43.2887 185.987 43.2543C186.047 43.2199 186.123 43.1988 186.155 43.2076C186.235 43.2291 186.812 43.0959 186.956 43.0226C187.02 42.9902 187.1 42.9713 187.135 42.9808C187.209 43.0008 187.559 42.9011 187.987 42.7377C188.153 42.6744 188.401 42.5991 188.538 42.5705C188.675 42.5419 188.854 42.4754 188.936 42.4226C189.018 42.3699 189.253 42.2716 189.458 42.2041C189.972 42.0346 192.351 40.6726 193.021 40.1636C193.324 39.9334 193.575 39.7315 193.58 39.715C193.584 39.6985 193.716 39.5782 193.873 39.4479C194.298 39.0947 194.872 38.4819 195.568 37.641C195.671 37.5167 195.808 37.356 195.873 37.2839C195.938 37.2118 196.004 37.1047 196.02 37.0461C196.035 36.9875 196.125 36.8572 196.22 36.7568C196.315 36.6562 196.406 36.521 196.424 36.4563C196.441 36.3916 196.51 36.2785 196.577 36.205C196.644 36.1315 196.752 35.9478 196.817 35.7968C196.882 35.6458 196.969 35.4967 197.012 35.4655C197.055 35.4343 197.16 35.2279 197.247 35.0068C197.334 34.7858 197.482 34.4747 197.577 34.3156C197.714 34.0848 197.84 33.6857 198.196 32.3465C198.603 30.8137 198.64 30.6356 198.614 30.3096C198.598 30.1131 198.609 29.8611 198.639 29.7496C198.668 29.6382 198.674 29.4647 198.651 29.3643C198.628 29.2637 198.617 29.0811 198.627 28.9585C198.636 28.8357 198.622 28.675 198.596 28.6012C198.569 28.5274 198.56 28.4218 198.574 28.3666C198.599 28.2741 198.538 27.787 198.473 27.5528C198.458 27.4981 198.441 27.4105 198.435 27.3582C198.383 26.8929 198.057 25.714 197.793 25.0348C197.712 24.8272 197.581 24.4809 197.501 24.2653C197.309 23.7491 196.164 21.7891 195.84 21.422C195.699 21.2635 195.54 21.0496 195.485 20.947C195.43 20.8443 195.352 20.7515 195.312 20.7408C195.273 20.7301 195.145 20.5989 195.029 20.4493C194.913 20.2998 194.783 20.1678 194.739 20.1561C194.696 20.1443 194.641 20.0918 194.616 20.0391C194.566 19.9304 193.472 18.9537 193.37 18.9261C193.333 18.9162 193.22 18.8303 193.118 18.7353C193.016 18.6403 192.893 18.5516 192.843 18.5381C192.793 18.5246 192.712 18.4621 192.662 18.3993C192.613 18.3363 192.508 18.2654 192.43 18.2416C192.351 18.2178 192.194 18.1303 192.08 18.0472C191.966 17.964 191.761 17.8445 191.625 17.7817C191.489 17.7189 191.234 17.5836 191.059 17.4811C190.884 17.3785 190.609 17.2591 190.448 17.2157C190.287 17.1724 189.944 17.0493 189.684 16.9422C189.075 16.6911 187.429 16.3529 186.697 16.3286C186.411 16.319 186.117 16.2944 186.045 16.2739C185.972 16.2534 185.832 16.2538 185.735 16.2748C185.637 16.2958 185.422 16.297 185.258 16.2774C185.094 16.2579 184.899 16.2632 184.825 16.2893C184.751 16.3153 184.631 16.3206 184.559 16.3011C184.487 16.2816 184.317 16.291 184.182 16.3221C183.898 16.3875 183.675 16.3445 183.662 16.2217C183.657 16.1747 183.771 15.8394 183.917 15.4765C184.111 14.9895 184.209 14.6555 184.289 14.201C184.348 13.8623 184.45 13.2955 184.515 12.9414C184.58 12.5874 184.62 12.1834 184.603 12.0438C184.586 11.9041 184.598 11.6862 184.629 11.5594C184.66 11.4326 184.666 11.2544 184.641 11.1634C184.617 11.0724 184.611 10.9395 184.629 10.8681C184.647 10.7968 184.635 10.6282 184.603 10.4934C184.571 10.3587 184.559 10.1932 184.577 10.1256C184.595 10.0581 184.581 9.96208 184.545 9.91219C184.51 9.86236 184.484 9.74336 184.488 9.64776C184.492 9.55217 184.466 9.43316 184.431 9.38334C184.395 9.33344 184.378 9.24739 184.393 9.19208C184.408 9.13677 184.39 9.04996 184.354 8.99923C184.318 8.94848 184.285 8.84806 184.282 8.77603C184.276 8.65668 184.131 8.22136 183.952 7.78309C183.827 7.47657 182.936 5.97303 182.869 5.95492C182.833 5.94529 182.713 5.82276 182.6 5.68273C182.488 5.54268 182.295 5.34128 182.17 5.23528C181.644 4.78856 181.47 4.65579 181.378 4.63093C181.325 4.61645 181.215 4.54508 181.135 4.47242C180.97 4.32199 179.041 3.73258 178.308 3.60824ZM179.529 6.74994C180.104 7.01466 180.438 7.25774 180.866 7.72429C181.297 8.19395 181.772 9.05294 181.976 9.72913C182.088 10.1032 182.213 10.6514 182.198 10.7074C182.188 10.7457 182.206 10.8871 182.238 11.0219C182.27 11.1567 182.284 11.3128 182.269 11.369C182.254 11.4251 182.265 11.5327 182.293 11.608C182.32 11.6834 182.329 11.8755 182.311 12.035C182.293 12.1945 182.296 12.4016 182.318 12.4953C182.339 12.589 182.326 12.7818 182.289 12.9239C182.252 13.0659 182.219 13.3472 182.215 13.549C182.207 14.0765 182.032 14.9081 181.742 15.8016C181.527 16.4642 181.464 16.6008 181.314 16.7301C181.218 16.8135 181.086 16.8774 181.02 16.8721C180.955 16.8667 180.842 16.8986 180.769 16.943C180.697 16.9873 180.611 17.0164 180.579 17.0076C180.546 16.9989 180.377 17.0499 180.202 17.121C180.028 17.1921 179.86 17.2436 179.83 17.2354C179.8 17.2273 179.63 17.2793 179.453 17.3509C179.275 17.4226 178.806 17.6048 178.409 17.7558C177.539 18.0866 175.293 19.3416 174.692 19.832C174.462 20.0196 174.068 20.3419 173.815 20.5481C173.562 20.7544 173.317 20.9682 173.27 21.0232C173.224 21.0782 173.07 21.2303 172.929 21.3611C172.788 21.492 172.516 21.7778 172.324 21.9963C172.132 22.2148 171.92 22.452 171.853 22.5235C171.786 22.595 171.72 22.6915 171.708 22.7379C171.696 22.7843 171.638 22.8439 171.58 22.8703C171.522 22.8967 171.46 22.9736 171.442 23.0411C171.424 23.1087 171.332 23.2461 171.237 23.3466C171.142 23.4472 171.056 23.5627 171.045 23.6034C171.034 23.6442 170.947 23.7646 170.851 23.8712C170.754 23.9777 170.657 24.1301 170.635 24.2098C170.613 24.2896 170.543 24.3947 170.48 24.4432C170.417 24.4919 170.344 24.6103 170.317 24.7064C170.291 24.8026 170.191 24.9708 170.097 25.0804C170.002 25.1899 169.894 25.388 169.858 25.5206C169.822 25.6533 169.733 25.8366 169.661 25.9281C169.589 26.0195 169.444 26.3062 169.339 26.5652C169.168 26.9892 168.98 27.4009 168.792 27.7622C168.687 27.9622 168.636 27.7932 168.689 27.4292C168.715 27.253 168.72 27.0297 168.699 26.9329C168.679 26.8361 168.685 26.6718 168.712 26.5678C168.739 26.4637 168.742 26.2902 168.717 26.1822C168.693 26.0742 168.692 25.8529 168.716 25.6905C168.74 25.528 168.743 25.3159 168.722 25.2192C168.702 25.1223 168.706 24.9639 168.732 24.867C168.758 24.7701 168.766 24.53 168.75 24.3335C168.735 24.137 168.748 23.8773 168.78 23.7565C168.812 23.6356 168.822 23.4576 168.801 23.3607C168.78 23.2639 168.792 23.0077 168.828 22.7914C168.863 22.5751 168.882 22.2796 168.87 22.1348C168.858 21.9901 168.881 21.7491 168.921 21.5994C168.961 21.4497 168.983 21.2035 168.97 21.0523C168.958 20.901 168.992 20.5543 169.046 20.2819C169.101 20.0094 169.139 19.6624 169.131 19.5107C169.123 19.3537 169.179 19.0035 169.26 18.6981C169.339 18.3994 169.411 17.9537 169.421 17.6929C169.436 17.2935 169.528 16.8896 170.039 14.96C170.567 12.9689 170.663 12.6578 170.831 12.3814C170.937 12.2085 171.063 11.9164 171.112 11.7323C171.161 11.5483 171.255 11.3376 171.32 11.2641C171.386 11.1907 171.494 10.9869 171.56 10.8113C171.626 10.6357 171.736 10.445 171.805 10.3877C171.873 10.3302 171.949 10.2115 171.972 10.1239C171.995 10.0362 172.092 9.88229 172.187 9.78176C172.281 9.68128 172.373 9.54381 172.391 9.47624C172.409 9.40873 172.471 9.33189 172.529 9.30548C172.587 9.27906 172.65 9.1993 172.669 9.12823C172.688 9.05717 172.749 8.97833 172.805 8.95304C172.86 8.92778 172.941 8.8377 172.985 8.75288C173.029 8.66806 173.111 8.57798 173.166 8.55273C173.222 8.52743 173.276 8.47307 173.287 8.43192C173.298 8.39077 173.349 8.33189 173.4 8.3011C173.452 8.27039 173.63 8.12483 173.796 7.97777C174.17 7.64636 175.39 6.94621 175.884 6.77965C176.43 6.59538 176.441 6.59196 176.762 6.5178C177.341 6.38384 177.769 6.3585 178.267 6.4288C178.544 6.46799 178.786 6.49173 178.804 6.48149C178.857 6.45122 178.977 6.49574 179.529 6.74994ZM189.549 20.1731C189.629 20.2318 189.818 20.3358 189.97 20.4042C190.263 20.5361 190.677 20.7996 190.913 21.0037C190.991 21.0713 191.087 21.1353 191.125 21.1458C191.221 21.1715 192.109 21.9554 192.134 22.0353C192.144 22.0703 192.19 22.109 192.236 22.1213C192.281 22.1336 192.413 22.266 192.529 22.4156C192.645 22.5652 192.776 22.6972 192.82 22.709C192.863 22.7207 192.91 22.7724 192.923 22.8239C192.937 22.8754 193.112 23.1355 193.313 23.402C193.514 23.6685 193.785 24.0687 193.914 24.2913C194.277 24.9149 194.959 26.5174 195.017 26.884C195.03 26.9615 195.071 27.1161 195.108 27.2276C195.145 27.3391 195.183 27.4735 195.191 27.5264C195.199 27.5793 195.25 27.8598 195.304 28.1498C195.358 28.4398 195.39 28.725 195.376 28.7835C195.361 28.842 195.374 28.9503 195.405 29.024C195.435 29.0978 195.44 29.2314 195.416 29.321C195.392 29.4106 195.389 29.591 195.41 29.722C195.456 30.0251 195.327 30.9094 195.123 31.6851C194.89 32.5679 194.448 33.7694 194.275 33.988C194.193 34.0915 194.102 34.2663 194.072 34.3766C194.043 34.4869 193.961 34.6523 193.89 34.7441C193.683 35.0141 193.415 35.4189 193.339 35.578C193.299 35.6593 193.223 35.7458 193.17 35.7703C193.116 35.7948 193.059 35.8642 193.043 35.9246C192.995 36.1028 192.024 37.1306 191.404 37.6594C190.227 38.6622 187.718 39.9958 186.389 40.3246C186.289 40.3494 186.076 40.4106 185.917 40.4607C185.758 40.5108 185.564 40.5609 185.486 40.5721C185.408 40.5834 185.292 40.6061 185.228 40.6228C185.164 40.6394 185.06 40.6666 184.996 40.6832C184.932 40.6998 184.808 40.7225 184.72 40.7336C184.632 40.7447 184.428 40.7776 184.268 40.8067C183.853 40.8818 183.622 40.9063 182.996 40.9416C182.893 40.9474 182.716 40.9577 182.604 40.9644C182.492 40.9711 182.248 40.971 182.063 40.9642C181.878 40.9574 181.646 40.9612 181.547 40.9725C181.448 40.9839 181.269 40.9665 181.148 40.9339C181.027 40.9012 180.822 40.8884 180.692 40.9055C180.428 40.94 179.031 40.7024 178.324 40.5027C177.536 40.2801 176.571 39.9028 176.405 39.7525C176.32 39.6748 176.177 39.5914 176.089 39.5672C176 39.543 175.863 39.451 175.785 39.3627C175.706 39.2743 175.587 39.187 175.519 39.1686C175.452 39.1501 175.375 39.0877 175.348 39.0297C175.321 38.9718 175.267 38.9157 175.228 38.9052C175.142 38.8821 174.768 38.4183 174.537 38.0491C174.277 37.634 173.982 36.7298 174.038 36.5197C174.05 36.4725 174.039 36.3397 174.013 36.2246C173.913 35.7801 174.726 32.7308 175.07 32.2591C175.152 32.1462 175.257 31.9179 175.303 31.7517C175.348 31.5856 175.445 31.3725 175.518 31.2782C175.591 31.1838 175.717 30.9363 175.797 30.7281C175.877 30.5199 176 30.2751 176.071 30.1841C176.141 30.0931 176.225 29.9211 176.257 29.8019C176.289 29.6828 176.372 29.523 176.442 29.4468C176.512 29.3707 176.623 29.1794 176.688 29.0218C176.753 28.8643 176.864 28.6617 176.933 28.5717C177.003 28.4818 177.083 28.3238 177.111 28.2206C177.14 28.1175 177.241 27.9434 177.336 27.8339C177.431 27.7243 177.532 27.5498 177.56 27.4461C177.589 27.3424 177.666 27.1974 177.732 27.1239C177.798 27.0505 177.899 26.8827 177.957 26.7512C178.014 26.6196 178.119 26.4489 178.19 26.3718C178.26 26.2947 178.341 26.1466 178.368 26.0426C178.396 25.9387 178.479 25.7882 178.553 25.7082C178.627 25.6282 178.733 25.4498 178.79 25.3116C178.847 25.1734 178.948 25.0003 179.013 24.9268C179.079 24.8533 179.154 24.7144 179.179 24.6182C179.205 24.522 179.303 24.361 179.398 24.2605C179.493 24.16 179.595 23.9855 179.625 23.8729C179.655 23.7602 179.731 23.6283 179.793 23.5797C179.856 23.5311 179.933 23.4014 179.964 23.2916C179.995 23.1817 180.102 22.9932 180.201 22.8728C180.3 22.7523 180.401 22.5779 180.426 22.4852C180.451 22.3925 180.526 22.2565 180.593 22.183C180.66 22.1095 180.769 21.9259 180.834 21.775C180.899 21.624 181.001 21.4592 181.061 21.4087C181.12 21.3582 181.192 21.2333 181.219 21.1312C181.246 21.029 181.355 20.8286 181.461 20.6858C181.567 20.5429 181.677 20.3359 181.707 20.2256C181.736 20.1154 181.811 19.9777 181.874 19.9198C181.936 19.8619 182.028 19.7279 182.077 19.6221C182.171 19.4189 182.228 19.3968 182.911 19.2971C183.088 19.2714 183.352 19.2295 183.499 19.2042C183.645 19.1788 183.827 19.1741 183.903 19.1935C183.979 19.213 184.102 19.2047 184.176 19.175C184.25 19.1453 184.377 19.1381 184.458 19.1589C184.54 19.1798 184.723 19.175 184.866 19.1484C185.009 19.1217 185.235 19.1284 185.368 19.1631C185.501 19.1979 185.691 19.2159 185.79 19.2031C185.889 19.1904 186.222 19.2274 186.529 19.2854C187.284 19.4278 189.368 20.0403 189.549 20.1731ZM163.683 22.8238C163.613 22.8329 163.433 22.9 163.283 22.973C163.048 23.0878 162.987 23.1551 162.834 23.4749C162.709 23.737 162.656 23.9188 162.651 24.1009C162.644 24.3233 162.783 25.2611 162.866 25.5542C162.881 25.609 162.933 25.8303 162.981 26.0459C163.029 26.2615 163.081 26.4829 163.097 26.5379C163.205 26.9126 163.53 28.105 163.563 28.2494C163.585 28.3462 163.618 28.4431 163.636 28.4648C163.654 28.4866 163.684 28.5778 163.704 28.6677C163.724 28.7575 163.829 29.0849 163.937 29.3953C164.045 29.7057 164.188 30.121 164.255 30.3183C164.563 31.2322 164.967 32.2835 165.121 32.5721C165.187 32.697 165.264 32.8744 165.292 32.9664C165.32 33.0584 165.466 33.3907 165.617 33.7048C165.767 34.019 165.976 34.4624 166.081 34.6901C166.491 35.5851 168.328 38.7022 168.897 39.4704C169.097 39.7405 169.31 40.0366 169.371 40.1285C169.431 40.2204 169.578 40.4131 169.697 40.5568C169.816 40.7004 170.005 40.9311 170.117 41.0694C170.711 41.8036 171.263 42.4414 171.316 42.456C171.327 42.4588 171.449 42.5885 171.588 42.7444C171.727 42.9002 171.873 43.0363 171.912 43.0468C171.951 43.0572 171.994 43.1052 172.008 43.1533C172.023 43.2013 172.124 43.3239 172.233 43.4256C172.627 43.7942 173.938 44.9414 174.188 45.1368C174.328 45.2469 174.502 45.3923 174.575 45.4599C174.647 45.5275 174.755 45.5959 174.814 45.6119C174.873 45.6279 174.964 45.6895 175.015 45.7487C175.067 45.8079 175.205 45.9119 175.323 45.9797C175.441 46.0476 175.611 46.1583 175.701 46.2258C175.912 46.3848 176.065 46.3251 176.137 46.056C176.179 45.899 176.156 45.8278 176.011 45.661C175.914 45.5491 175.812 45.4515 175.785 45.4441C175.732 45.4298 174.911 44.751 174.788 44.6201C174.749 44.5777 174.648 44.4842 174.566 44.4123C174.483 44.3405 174.283 44.1492 174.122 43.9872C173.962 43.8253 173.762 43.636 173.678 43.5666C173.595 43.4972 173.502 43.3881 173.472 43.3242C173.443 43.2603 173.393 43.2011 173.362 43.1928C173.313 43.1794 172.93 42.7517 172.31 42.0179C171.251 40.7643 169.543 38.1405 169.034 36.9869C168.941 36.7759 168.776 36.4412 168.668 36.243C168.56 36.0449 168.309 35.4935 168.112 35.0178C167.914 34.5421 167.672 33.9793 167.575 33.7671C167.402 33.3908 166.935 32.1438 166.751 31.5664C166.701 31.4076 166.64 31.2175 166.616 31.1439C166.381 30.4096 166.006 29.077 166.02 29.0254C166.024 29.0079 165.989 28.8814 165.941 28.7444C165.821 28.4035 165.31 25.8859 165.339 25.7776C165.351 25.7296 165.331 25.6477 165.294 25.5956C165.257 25.5435 165.242 25.4427 165.261 25.3717C165.28 25.3006 165.267 25.2026 165.232 25.1539C165.198 25.1053 165.171 24.9911 165.174 24.9003C165.179 24.7316 165.163 24.621 165.046 23.9861C164.935 23.3887 164.621 23.0157 164.12 22.8868C163.95 22.843 163.753 22.8146 163.683 22.8238Z" fill="#FFB800"/>
<path d="M1.44 36.96C1.44 36.64 1.56 36.32 1.8 36C2.06667 35.6533 2.34667 35.48 2.64 35.48C2.85333 35.48 3.12 35.6533 3.44 36L4.56 37.16C4.96 37.5867 5.58667 37.9733 6.44 38.32C7.32 38.64 8.33333 38.8 9.48 38.8C11.3733 38.8 12.84 38.3333 13.88 37.4C14.92 36.44 15.44 35.0667 15.44 33.28C15.44 32.08 15.1867 31.0667 14.68 30.24C14.2 29.3867 13.5733 28.7333 12.8 28.28C12.0533 27.8 11.2 27.3733 10.24 27L7.36 25.88C6.4 25.5067 5.53333 25.0667 4.76 24.56C4.01333 24.0267 3.38667 23.2933 2.88 22.36C2.4 21.4 2.16 20.2667 2.16 18.96C2.16 17.5733 2.41333 16.3867 2.92 15.4C3.45333 14.3867 4.16 13.6267 5.04 13.12C5.92 12.6133 6.81333 12.2533 7.72 12.04C8.65333 11.8 9.62667 11.68 10.64 11.68C12.2667 11.68 13.7867 11.92 15.2 12.4C16.64 12.8533 17.36 13.4267 17.36 14.12C17.36 14.44 17.24 14.7733 17 15.12C16.7867 15.44 16.52 15.6 16.2 15.6C16.04 15.6 15.7333 15.48 15.28 15.24C14.8267 14.9733 14.1867 14.72 13.36 14.48C12.56 14.2133 11.64 14.08 10.6 14.08C8.92 14.08 7.53333 14.44 6.44 15.16C5.34667 15.88 4.8 17.0667 4.8 18.72C4.8 19.8667 5.12 20.8267 5.76 21.6C6.42667 22.3733 7.25333 22.9333 8.24 23.28C9.22667 23.6267 10.2933 24.04 11.44 24.52C12.5867 25 13.6533 25.52 14.64 26.08C15.6267 26.6133 16.44 27.48 17.08 28.68C17.7467 29.8533 18.08 31.3067 18.08 33.04C18.08 35.7867 17.32 37.8533 15.8 39.24C14.28 40.6 12.2267 41.28 9.64 41.28C7.32 41.28 5.37333 40.7867 3.8 39.8C2.22667 38.7867 1.44 37.84 1.44 36.96ZM28.4856 32.68V20.28C28.4856 17.3467 29.2323 15.2 30.7256 13.84C32.2456 12.4533 34.2723 11.76 36.8056 11.76C39.339 11.76 41.3523 12.4533 42.8456 13.84C44.3656 15.2 45.1256 17.3467 45.1256 20.28V32.68C45.1256 35.64 44.3656 37.8133 42.8456 39.2C41.3523 40.56 39.339 41.24 36.8056 41.24C34.2723 41.24 32.2456 40.56 30.7256 39.2C29.2323 37.8133 28.4856 35.64 28.4856 32.68ZM31.1256 32.68C31.1256 36.76 33.019 38.8 36.8056 38.8C40.5923 38.8 42.4856 36.76 42.4856 32.68V20.28C42.4856 16.2267 40.5923 14.2 36.8056 14.2C33.019 14.2 31.1256 16.2267 31.1256 20.28V32.68ZM56.5559 32.68V20.28C56.5559 17.3733 57.3293 15.2267 58.8759 13.84C60.4493 12.4533 62.4759 11.76 64.9559 11.76C67.4893 11.76 69.4893 12.4133 70.9559 13.72C72.4493 15 73.1959 16.5733 73.1959 18.44C73.1959 19.08 73.0893 19.5067 72.8759 19.72C72.6893 19.9333 72.3559 20.04 71.8759 20.04C71.0493 20.04 70.6093 19.7067 70.5559 19.04C70.5293 18.64 70.4759 18.2533 70.3959 17.88C70.3159 17.5067 70.1559 17.0933 69.9159 16.64C69.6759 16.16 69.3559 15.7467 68.9559 15.4C68.5826 15.0533 68.0493 14.7733 67.3559 14.56C66.6626 14.32 65.8626 14.2 64.9559 14.2C61.1159 14.2 59.1959 16.2267 59.1959 20.28V32.68C59.1959 36.76 61.1693 38.8 65.1159 38.8C66.2359 38.8 67.1693 38.6533 67.9159 38.36C68.6626 38.04 69.2093 37.5867 69.5559 37C69.9026 36.4133 70.1293 35.92 70.2359 35.52C70.3693 35.0933 70.4759 34.5467 70.5559 33.88C70.6359 33.1867 71.0759 32.84 71.8759 32.84C72.3559 32.84 72.6893 32.96 72.8759 33.2C73.0893 33.4133 73.1959 33.84 73.1959 34.48C73.1959 36.3733 72.4359 37.9733 70.9159 39.28C69.4226 40.5867 67.3959 41.24 64.8359 41.24C62.3826 41.24 60.3826 40.5467 58.8359 39.16C57.3159 37.7733 56.5559 35.6133 56.5559 32.68ZM83.8134 39.96V12.72C83.8134 12.08 84.2534 11.76 85.1334 11.76C86.0134 11.76 86.4534 12.08 86.4534 12.72V39.96C86.4534 40.28 86.3201 40.5333 86.0534 40.72C85.7868 40.9067 85.4801 41 85.1334 41C84.7601 41 84.4401 40.9067 84.1734 40.72C83.9334 40.5333 83.8134 40.28 83.8134 39.96ZM96.3244 39.88C96.3244 39.7467 96.3377 39.6533 96.3644 39.6L104.724 12.44C104.911 11.8267 105.431 11.52 106.284 11.52C107.138 11.52 107.671 11.8267 107.884 12.44L116.204 39.6C116.204 39.6267 116.204 39.6667 116.204 39.72C116.231 39.7733 116.244 39.8133 116.244 39.84C116.244 40.16 116.071 40.44 115.724 40.68C115.378 40.8933 115.018 41 114.644 41C114.138 41 113.804 40.7733 113.644 40.32L111.804 34.16H100.724L98.8844 40.32C98.7777 40.7733 98.431 41 97.8444 41C97.471 41 97.1244 40.8933 96.8044 40.68C96.4844 40.4667 96.3244 40.2 96.3244 39.88ZM101.404 31.88H111.124L106.284 15.76L101.404 31.88ZM126.126 39.96V12.72C126.126 12.08 126.566 11.76 127.446 11.76C128.326 11.76 128.766 12.08 128.766 12.72V38.56H140.166C140.753 38.56 141.046 38.96 141.046 39.76C141.046 40.5867 140.753 41 140.166 41H127.326C127.006 41 126.726 40.9067 126.486 40.72C126.246 40.5333 126.126 40.28 126.126 39.96ZM206.553 32.68V12.72C206.553 12.08 206.993 11.76 207.873 11.76C208.753 11.76 209.193 12.08 209.193 12.72V32.68C209.193 34.7067 209.686 36.24 210.673 37.28C211.686 38.2933 213.113 38.8 214.953 38.8C216.793 38.8 218.206 38.2933 219.193 37.28C220.206 36.24 220.713 34.7067 220.713 32.68V12.72C220.713 12.08 221.153 11.76 222.033 11.76C222.913 11.76 223.353 12.08 223.353 12.72V32.68C223.353 35.64 222.579 37.8133 221.033 39.2C219.513 40.56 217.486 41.24 214.953 41.24C212.419 41.24 210.379 40.56 208.833 39.2C207.313 37.8133 206.553 35.64 206.553 32.68ZM232.889 13C232.889 12.68 232.969 12.4 233.129 12.16C233.316 11.8933 233.569 11.76 233.889 11.76H249.929C250.249 11.76 250.489 11.88 250.649 12.12C250.836 12.36 250.929 12.64 250.929 12.96C250.929 13.3067 250.836 13.6133 250.649 13.88C250.489 14.12 250.249 14.24 249.929 14.24H243.249V39.96C243.249 40.28 243.116 40.5333 242.849 40.72C242.582 40.9067 242.276 41 241.929 41C241.556 41 241.236 40.9067 240.969 40.72C240.729 40.5333 240.609 40.28 240.609 39.96V14.24H233.889C233.596 14.24 233.356 14.12 233.169 13.88C232.982 13.64 232.889 13.3467 232.889 13ZM258.147 13C258.147 12.68 258.227 12.4 258.387 12.16C258.574 11.8933 258.827 11.76 259.147 11.76H275.187C275.507 11.76 275.747 11.88 275.907 12.12C276.094 12.36 276.187 12.64 276.187 12.96C276.187 13.3067 276.094 13.6133 275.907 13.88C275.747 14.12 275.507 14.24 275.187 14.24H268.507V39.96C268.507 40.28 268.374 40.5333 268.107 40.72C267.84 40.9067 267.534 41 267.187 41C266.814 41 266.494 40.9067 266.227 40.72C265.987 40.5333 265.867 40.28 265.867 39.96V14.24H259.147C258.854 14.24 258.614 14.12 258.427 13.88C258.24 13.64 258.147 13.3467 258.147 13ZM285.845 39.96V12.76C285.845 12.44 285.965 12.2 286.205 12.04C286.445 11.8533 286.725 11.76 287.045 11.76H301.285C301.951 11.76 302.285 12.1467 302.285 12.92C302.285 13.2667 302.191 13.5733 302.005 13.84C301.845 14.08 301.605 14.2 301.285 14.2H288.485V25.2H294.765C295.085 25.2 295.325 25.32 295.485 25.56C295.671 25.7733 295.765 26.0533 295.765 26.4C295.765 27.12 295.431 27.48 294.765 27.48H288.485V38.56H301.285C301.578 38.56 301.818 38.68 302.005 38.92C302.191 39.16 302.285 39.4533 302.285 39.8C302.285 40.6 301.951 41 301.285 41H287.045C286.725 41 286.445 40.9067 286.205 40.72C285.965 40.5333 285.845 40.28 285.845 39.96ZM312.157 39.96V12.72C312.157 12.1333 312.491 11.8133 313.157 11.76H320.237C322.824 11.76 324.904 12.3733 326.477 13.6C328.077 14.8267 328.877 16.84 328.877 19.64C328.877 24.0667 326.797 26.64 322.637 27.36L328.797 39.2C328.904 39.3333 328.957 39.5067 328.957 39.72C328.957 40.0667 328.797 40.3867 328.477 40.68C328.157 40.9467 327.811 41.08 327.437 41.08C326.957 41.08 326.491 40.6133 326.037 39.68L319.877 27.68H314.797V39.96C314.797 40.28 314.664 40.5333 314.397 40.72C314.131 40.9067 313.824 41 313.477 41C313.104 41 312.784 40.9067 312.517 40.72C312.277 40.5333 312.157 40.28 312.157 39.96ZM314.797 25.4H320.237C324.237 25.4 326.237 23.52 326.237 19.76C326.237 16.0533 324.237 14.2 320.237 14.2H314.797V25.4ZM339.329 40V12.76C339.329 12.44 339.449 12.2 339.689 12.04C339.929 11.8533 340.209 11.76 340.529 11.76H354.689C355.009 11.76 355.249 11.88 355.409 12.12C355.596 12.3333 355.689 12.6 355.689 12.92C355.689 13.2667 355.596 13.5733 355.409 13.84C355.249 14.08 355.009 14.2 354.689 14.2H341.969V25.2H348.289C348.582 25.2 348.809 25.32 348.969 25.56C349.156 25.7733 349.249 26.0533 349.249 26.4C349.249 27.12 348.929 27.48 348.289 27.48H341.969V40C341.969 40.32 341.836 40.5733 341.569 40.76C341.302 40.92 340.996 41 340.649 41C339.769 41 339.329 40.6667 339.329 40ZM365.095 39.96V12.72C365.095 12.08 365.535 11.76 366.415 11.76C367.295 11.76 367.735 12.08 367.735 12.72V38.56H379.135C379.721 38.56 380.015 38.96 380.015 39.76C380.015 40.5867 379.721 41 379.135 41H366.295C365.975 41 365.695 40.9067 365.455 40.72C365.215 40.5333 365.095 40.28 365.095 39.96ZM383.658 12.88C383.658 12.56 383.805 12.2933 384.098 12.08C384.418 11.8667 384.752 11.76 385.098 11.76C385.525 11.76 385.872 12.0267 386.138 12.56L393.498 27.16L400.898 12.56C401.165 12.0267 401.512 11.76 401.938 11.76C402.285 11.76 402.605 11.8667 402.898 12.08C403.218 12.2933 403.378 12.56 403.378 12.88C403.378 13.12 403.325 13.36 403.218 13.6L394.898 29.48C394.845 29.64 394.818 29.7467 394.818 29.8V39.96C394.818 40.28 394.685 40.5333 394.418 40.72C394.178 40.9067 393.872 41 393.498 41C393.152 41 392.845 40.9067 392.578 40.72C392.312 40.5333 392.178 40.28 392.178 39.96V29.8C392.178 29.6667 392.165 29.56 392.138 29.48L383.858 13.6C383.725 13.36 383.658 13.12 383.658 12.88Z" fill="#3D6E89"/>
</svg>
