<svg width="71" height="43" viewBox="0 0 71 43" fill="none" xmlns="http://www.w3.org/2000/svg">
<path d="M45.1998 41.2497L69.1998 23.2974C69.5822 23.011 69.8886 22.658 70.0985 22.2622C70.3084 21.8663 70.417 21.4367 70.417 21.0021C70.417 20.5675 70.3084 20.1378 70.0985 19.742C69.8886 19.3461 69.5822 18.9932 69.1998 18.7067L45.1998 0.754462C44.6834 0.368446 44.0478 0.11779 43.3692 0.0324739C42.6905 -0.0528418 41.9974 0.0307959 41.3729 0.273389C40.7484 0.515982 40.2189 0.907252 39.8477 1.40039C39.4764 1.89353 39.2793 2.46765 39.2798 3.05407V38.8817C39.2636 39.4739 39.4494 40.0574 39.8145 40.5609C40.1796 41.0644 40.7082 41.4662 41.3358 41.7172C41.9635 41.9683 42.663 42.0578 43.3492 41.9748C44.0353 41.8917 44.6783 41.6398 45.1998 41.2497Z" fill="#86A7BD"/>
<path d="M30.3999 6.72266C29.9015 6.72266 29.4143 6.849 28.9998 7.08572C28.5854 7.32244 28.2624 7.65889 28.0717 8.05254C27.881 8.44618 27.8311 8.87934 27.9283 9.29724C28.0255 9.71513 28.2655 10.099 28.618 10.4003C28.9704 10.7016 29.4194 10.9067 29.9082 10.9899C30.3971 11.073 30.9038 11.0303 31.3642 10.8673C31.8247 10.7042 32.2183 10.4281 32.4952 10.0738C32.7721 9.71954 32.9199 9.30302 32.9199 8.87694C32.9199 8.59404 32.8547 8.31391 32.728 8.05254C32.6014 7.79116 32.4158 7.55367 32.1818 7.35363C31.9478 7.15358 31.67 6.9949 31.3642 6.88664C31.0585 6.77837 30.7308 6.72266 30.3999 6.72266Z" fill="#86A7BD"/>
<path d="M30.3999 14.835C29.9015 14.835 29.4143 14.9613 28.9998 15.198C28.5854 15.4347 28.2624 15.7712 28.0717 16.1649C27.881 16.5585 27.8311 16.9916 27.9283 17.4095C28.0255 17.8274 28.2655 18.2113 28.618 18.5126C28.9704 18.8139 29.4194 19.019 29.9082 19.1022C30.3971 19.1853 30.9038 19.1426 31.3642 18.9796C31.8247 18.8165 32.2183 18.5404 32.4952 18.1861C32.7721 17.8318 32.9199 17.4153 32.9199 16.9893C32.9199 16.4179 32.6544 15.87 32.1818 15.4659C31.7092 15.0619 31.0682 14.835 30.3999 14.835Z" fill="#86A7BD"/>
<path d="M30.3999 27.2559C31.7916 27.2559 32.9199 26.2914 32.9199 25.1016C32.9199 23.9118 31.7916 22.9473 30.3999 22.9473C29.0081 22.9473 27.8799 23.9118 27.8799 25.1016C27.8799 26.2914 29.0081 27.2559 30.3999 27.2559Z" fill="#86A7BD"/>
<path d="M30.3999 31.0518C29.9015 31.0518 29.4143 31.1781 28.9998 31.4147C28.5854 31.6514 28.2624 31.9878 28.0717 32.3813C27.881 32.7749 27.8311 33.208 27.9283 33.6258C28.0255 34.0436 28.2655 34.4273 28.618 34.7285C28.9704 35.0298 29.4194 35.2349 29.9082 35.318C30.3971 35.4011 30.9038 35.3584 31.3642 35.1954C31.8247 35.0324 32.2183 34.7564 32.4952 34.4022C32.7721 34.048 32.9199 33.6316 32.9199 33.2056C32.9199 32.6343 32.6544 32.0865 32.1818 31.6826C31.7092 31.2787 31.0682 31.0518 30.3999 31.0518Z" fill="#86A7BD"/>
<path d="M21.1098 6.72266C20.6114 6.72266 20.1242 6.849 19.7098 7.08572C19.2954 7.32244 18.9724 7.65889 18.7817 8.05254C18.5909 8.44618 18.541 8.87934 18.6383 9.29724C18.7355 9.71513 18.9755 10.099 19.3279 10.4003C19.6804 10.7016 20.1294 10.9067 20.6182 10.9899C21.107 11.073 21.6137 11.0303 22.0742 10.8673C22.5347 10.7042 22.9282 10.4281 23.2051 10.0738C23.482 9.71954 23.6298 9.30302 23.6298 8.87694C23.6298 8.59404 23.5646 8.31391 23.438 8.05254C23.3114 7.79116 23.1257 7.55367 22.8917 7.35363C22.6577 7.15358 22.3799 6.9949 22.0742 6.88664C21.7685 6.77837 21.4408 6.72266 21.1098 6.72266Z" fill="#86A7BD"/>
<path d="M21.1098 14.835C20.6114 14.835 20.1242 14.9613 19.7098 15.198C19.2954 15.4347 18.9724 15.7712 18.7817 16.1649C18.5909 16.5585 18.541 16.9916 18.6383 17.4095C18.7355 17.8274 18.9755 18.2113 19.3279 18.5126C19.6804 18.8139 20.1294 19.019 20.6182 19.1022C21.107 19.1853 21.6137 19.1426 22.0742 18.9796C22.5347 18.8165 22.9282 18.5404 23.2051 18.1861C23.482 17.8318 23.6298 17.4153 23.6298 16.9893C23.6298 16.4179 23.3643 15.87 22.8917 15.4659C22.4191 15.0619 21.7782 14.835 21.1098 14.835Z" fill="#86A7BD"/>
<path d="M21.1099 22.9473C20.6114 22.9473 20.1242 23.0736 19.7098 23.3103C19.2954 23.5471 18.9724 23.8835 18.7817 24.2772C18.5909 24.6708 18.541 25.104 18.6383 25.5219C18.7355 25.9397 18.9755 26.3236 19.3279 26.6249C19.6804 26.9262 20.1294 27.1313 20.6182 27.2145C21.1071 27.2976 21.6138 27.2549 22.0742 27.0919C22.5347 26.9288 22.9283 26.6527 23.2052 26.2984C23.4821 25.9442 23.6299 25.5277 23.6299 25.1016C23.6312 24.8184 23.5669 24.5377 23.4407 24.2758C23.3146 24.0139 23.129 23.776 22.8947 23.5757C22.6605 23.3755 22.3821 23.2168 22.0758 23.109C21.7694 23.0011 21.4412 22.9462 21.1099 22.9473Z" fill="#86A7BD"/>
<path d="M21.1098 31.0518C20.6114 31.0518 20.1242 31.1781 19.7098 31.4147C19.2954 31.6514 18.9724 31.9878 18.7817 32.3813C18.5909 32.7749 18.541 33.208 18.6383 33.6258C18.7355 34.0436 18.9755 34.4273 19.3279 34.7285C19.6804 35.0298 20.1294 35.2349 20.6182 35.318C21.107 35.4011 21.6137 35.3584 22.0742 35.1954C22.5347 35.0324 22.9282 34.7564 23.2051 34.4022C23.482 34.048 23.6298 33.6316 23.6298 33.2056C23.6298 32.6343 23.3643 32.0865 22.8917 31.6826C22.4191 31.2787 21.7782 31.0518 21.1098 31.0518Z" fill="#86A7BD"/>
<path d="M11.8598 14.835C11.3614 14.835 10.8742 14.9613 10.4598 15.198C10.0454 15.4347 9.7224 15.7712 9.53167 16.1649C9.34094 16.5585 9.29103 16.9916 9.38827 17.4095C9.4855 17.8274 9.72551 18.2113 10.0779 18.5126C10.4304 18.8139 10.8794 19.019 11.3682 19.1022C11.857 19.1853 12.3637 19.1426 12.8242 18.9796C13.2847 18.8165 13.6782 18.5404 13.9551 18.1861C14.232 17.8318 14.3798 17.4153 14.3798 16.9893C14.3798 16.4179 14.1143 15.87 13.6417 15.4659C13.1691 15.0619 12.5282 14.835 11.8598 14.835Z" fill="#86A7BD"/>
<path d="M11.8598 22.9473C11.3614 22.9473 10.8742 23.0736 10.4598 23.3103C10.0454 23.547 9.7224 23.8835 9.53167 24.2771C9.34094 24.6708 9.29103 25.104 9.38827 25.5218C9.4855 25.9397 9.72551 26.3236 10.0779 26.6249C10.4304 26.9262 10.8794 27.1313 11.3682 27.2145C11.857 27.2976 12.3637 27.2549 12.8242 27.0919C13.2847 26.9288 13.6782 26.6527 13.9551 26.2984C14.232 25.9442 14.3798 25.5276 14.3798 25.1016C14.3798 24.5302 14.1143 23.9823 13.6417 23.5783C13.1691 23.1742 12.5282 22.9473 11.8598 22.9473Z" fill="#86A7BD"/>
<path d="M2.51999 14.835C2.02158 14.835 1.53437 14.9613 1.11996 15.198C0.705551 15.4347 0.382558 15.7712 0.191826 16.1649C0.00109441 16.5585 -0.0488132 16.9916 0.0484211 17.4095C0.145655 17.8274 0.385662 18.2113 0.738088 18.5126C1.09051 18.8139 1.53954 19.019 2.02837 19.1022C2.5172 19.1853 3.02388 19.1426 3.48435 18.9796C3.94482 18.8165 4.33838 18.5404 4.61528 18.1861C4.89218 17.8318 5.03998 17.4153 5.03998 16.9893C5.03998 16.4179 4.77448 15.87 4.30189 15.4659C3.8293 15.0619 3.18833 14.835 2.51999 14.835Z" fill="#86A7BD"/>
<path d="M2.51999 27.2559C3.91174 27.2559 5.03998 26.2914 5.03998 25.1016C5.03998 23.9118 3.91174 22.9473 2.51999 22.9473C1.12824 22.9473 0 23.9118 0 25.1016C0 26.2914 1.12824 27.2559 2.51999 27.2559Z" fill="#86A7BD"/>
</svg>
