<svg width="71" height="43" viewBox="0 0 71 43" fill="none" xmlns="http://www.w3.org/2000/svg">
<path d="M45.1998 41.2487L69.1998 23.2969C69.5822 23.0104 69.8886 22.6575 70.0985 22.2616C70.3084 21.8658 70.417 21.4362 70.417 21.0016C70.417 20.567 70.3084 20.1374 70.0985 19.7415C69.8886 19.3457 69.5822 18.9927 69.1998 18.7063L45.1998 0.754445C44.6834 0.368437 44.0478 0.117787 43.3692 0.0324732C42.6905 -0.0528406 41.9974 0.0307952 41.3729 0.273383C40.7484 0.51597 40.2189 0.907231 39.8477 1.40036C39.4764 1.89348 39.2793 2.46759 39.2798 3.054V38.8808C39.2636 39.473 39.4494 40.0564 39.8145 40.5599C40.1796 41.0634 40.7082 41.4652 41.3358 41.7163C41.9635 41.9673 42.663 42.0568 43.3492 41.9738C44.0353 41.8908 44.6783 41.6388 45.1998 41.2487Z" fill="#86A7BD"/>
<path d="M30.3999 6.72168C29.9015 6.72168 29.4143 6.84803 28.9998 7.08475C28.5854 7.32146 28.2624 7.65791 28.0717 8.05156C27.881 8.44521 27.8311 8.87837 27.9283 9.29626C28.0255 9.71415 28.2655 10.098 28.618 10.3993C28.9704 10.7006 29.4194 10.9058 29.9082 10.9889C30.3971 11.072 30.9038 11.0293 31.3642 10.8663C31.8247 10.7032 32.2183 10.4271 32.4952 10.0728C32.7721 9.71856 32.9199 9.30205 32.9199 8.87597C32.9199 8.59306 32.8547 8.31293 32.728 8.05156C32.6014 7.79019 32.4158 7.5527 32.1818 7.35265C31.9478 7.15261 31.67 6.99392 31.3642 6.88566C31.0585 6.7774 30.7308 6.72168 30.3999 6.72168Z" fill="#86A7BD"/>
<path d="M30.3999 14.834C29.9015 14.834 29.4143 14.9603 28.9998 15.197C28.5854 15.4338 28.2624 15.7702 28.0717 16.1639C27.881 16.5575 27.8311 16.9907 27.9283 17.4086C28.0255 17.8264 28.2655 18.2103 28.618 18.5116C28.9704 18.8129 29.4194 19.0181 29.9082 19.1012C30.3971 19.1843 30.9038 19.1416 31.3642 18.9786C31.8247 18.8155 32.2183 18.5394 32.4952 18.1851C32.7721 17.8309 32.9199 17.4144 32.9199 16.9883C32.9199 16.4169 32.6544 15.869 32.1818 15.465C31.7092 15.061 31.0682 14.834 30.3999 14.834Z" fill="#86A7BD"/>
<path d="M30.3999 27.2559C31.7916 27.2559 32.9199 26.2914 32.9199 25.1016C32.9199 23.9118 31.7916 22.9473 30.3999 22.9473C29.0081 22.9473 27.8799 23.9118 27.8799 25.1016C27.8799 26.2914 29.0081 27.2559 30.3999 27.2559Z" fill="#86A7BD"/>
<path d="M30.3999 31.0508C29.9015 31.0508 29.4143 31.1771 28.9998 31.4138C28.5854 31.6506 28.2624 31.987 28.0717 32.3807C27.881 32.7743 27.8311 33.2075 27.9283 33.6254C28.0255 34.0433 28.2655 34.4271 28.618 34.7284C28.9704 35.0297 29.4194 35.2349 29.9082 35.318C30.3971 35.4011 30.9038 35.3584 31.3642 35.1954C31.8247 35.0323 32.2183 34.7562 32.4952 34.4019C32.7721 34.0477 32.9199 33.6312 32.9199 33.2051C32.9199 32.6337 32.6544 32.0858 32.1818 31.6818C31.7092 31.2778 31.0682 31.0508 30.3999 31.0508Z" fill="#86A7BD"/>
<path d="M21.1098 6.72168C20.6114 6.72168 20.1242 6.84803 19.7098 7.08475C19.2954 7.32146 18.9724 7.65791 18.7817 8.05156C18.5909 8.44521 18.541 8.87837 18.6383 9.29626C18.7355 9.71415 18.9755 10.098 19.3279 10.3993C19.6804 10.7006 20.1294 10.9058 20.6182 10.9889C21.107 11.072 21.6137 11.0293 22.0742 10.8663C22.5347 10.7032 22.9282 10.4271 23.2051 10.0728C23.482 9.71856 23.6298 9.30205 23.6298 8.87597C23.6298 8.59306 23.5646 8.31293 23.438 8.05156C23.3114 7.79019 23.1257 7.5527 22.8917 7.35265C22.6577 7.15261 22.3799 6.99392 22.0742 6.88566C21.7685 6.7774 21.4408 6.72168 21.1098 6.72168Z" fill="#86A7BD"/>
<path d="M21.1098 14.834C20.6114 14.834 20.1242 14.9603 19.7098 15.197C19.2954 15.4338 18.9724 15.7702 18.7817 16.1639C18.5909 16.5575 18.541 16.9907 18.6383 17.4086C18.7355 17.8264 18.9755 18.2103 19.3279 18.5116C19.6804 18.8129 20.1294 19.0181 20.6182 19.1012C21.107 19.1843 21.6137 19.1416 22.0742 18.9786C22.5347 18.8155 22.9282 18.5394 23.2051 18.1851C23.482 17.8309 23.6298 17.4144 23.6298 16.9883C23.6298 16.4169 23.3643 15.869 22.8917 15.465C22.4191 15.061 21.7782 14.834 21.1098 14.834Z" fill="#86A7BD"/>
<path d="M21.1099 22.9473C20.6114 22.9473 20.1242 23.0736 19.7098 23.3103C19.2954 23.5471 18.9724 23.8835 18.7817 24.2772C18.5909 24.6708 18.541 25.104 18.6383 25.5219C18.7355 25.9397 18.9755 26.3236 19.3279 26.6249C19.6804 26.9262 20.1294 27.1313 20.6182 27.2145C21.1071 27.2976 21.6138 27.2549 22.0742 27.0919C22.5347 26.9288 22.9283 26.6527 23.2052 26.2984C23.4821 25.9442 23.6299 25.5277 23.6299 25.1016C23.6312 24.8184 23.5669 24.5377 23.4407 24.2758C23.3146 24.0139 23.129 23.776 22.8947 23.5757C22.6605 23.3755 22.3821 23.2168 22.0758 23.109C21.7694 23.0011 21.4412 22.9462 21.1099 22.9473Z" fill="#86A7BD"/>
<path d="M21.1098 31.0508C20.6114 31.0508 20.1242 31.1771 19.7098 31.4138C19.2954 31.6506 18.9724 31.987 18.7817 32.3807C18.5909 32.7743 18.541 33.2075 18.6383 33.6254C18.7355 34.0433 18.9755 34.4271 19.3279 34.7284C19.6804 35.0297 20.1294 35.2349 20.6182 35.318C21.107 35.4011 21.6137 35.3584 22.0742 35.1954C22.5347 35.0323 22.9282 34.7562 23.2051 34.4019C23.482 34.0477 23.6298 33.6312 23.6298 33.2051C23.6298 32.6337 23.3643 32.0858 22.8917 31.6818C22.4191 31.2778 21.7782 31.0508 21.1098 31.0508Z" fill="#86A7BD"/>
<path d="M11.8598 14.834C11.3614 14.834 10.8742 14.9603 10.4598 15.197C10.0454 15.4338 9.7224 15.7702 9.53167 16.1639C9.34094 16.5575 9.29103 16.9907 9.38827 17.4086C9.4855 17.8264 9.72551 18.2103 10.0779 18.5116C10.4304 18.8129 10.8794 19.0181 11.3682 19.1012C11.857 19.1843 12.3637 19.1416 12.8242 18.9786C13.2847 18.8155 13.6782 18.5394 13.9551 18.1851C14.232 17.8309 14.3798 17.4144 14.3798 16.9883C14.3798 16.4169 14.1143 15.869 13.6417 15.465C13.1691 15.061 12.5282 14.834 11.8598 14.834Z" fill="#86A7BD"/>
<path d="M11.8598 22.9473C11.3614 22.9473 10.8742 23.0736 10.4598 23.3103C10.0454 23.547 9.7224 23.8835 9.53167 24.2771C9.34094 24.6708 9.29103 25.104 9.38827 25.5218C9.4855 25.9397 9.72551 26.3236 10.0779 26.6249C10.4304 26.9262 10.8794 27.1313 11.3682 27.2145C11.857 27.2976 12.3637 27.2549 12.8242 27.0919C13.2847 26.9288 13.6782 26.6527 13.9551 26.2984C14.232 25.9442 14.3798 25.5276 14.3798 25.1016C14.3798 24.5302 14.1143 23.9823 13.6417 23.5783C13.1691 23.1742 12.5282 22.9473 11.8598 22.9473Z" fill="#86A7BD"/>
<path d="M2.51999 14.834C2.02158 14.834 1.53437 14.9603 1.11996 15.197C0.705551 15.4338 0.382558 15.7702 0.191826 16.1639C0.00109441 16.5575 -0.0488132 16.9907 0.0484211 17.4086C0.145655 17.8264 0.385662 18.2103 0.738088 18.5116C1.09051 18.8129 1.53954 19.0181 2.02837 19.1012C2.5172 19.1843 3.02388 19.1416 3.48435 18.9786C3.94482 18.8155 4.33838 18.5394 4.61528 18.1851C4.89218 17.8309 5.03998 17.4144 5.03998 16.9883C5.03998 16.4169 4.77448 15.869 4.30189 15.465C3.8293 15.061 3.18833 14.834 2.51999 14.834Z" fill="#86A7BD"/>
<path d="M2.51999 27.2559C3.91174 27.2559 5.03998 26.2914 5.03998 25.1016C5.03998 23.9118 3.91174 22.9473 2.51999 22.9473C1.12824 22.9473 0 23.9118 0 25.1016C0 26.2914 1.12824 27.2559 2.51999 27.2559Z" fill="#86A7BD"/>
</svg>
