<svg width="33" height="33" viewBox="0 0 33 33" fill="none" xmlns="http://www.w3.org/2000/svg">
<path d="M27.7687 17.8045V30.1674C27.7687 30.704 27.3322 31.1406 26.7956 31.1406H26.0459C25.7788 31.1406 25.5624 31.357 25.5624 31.624C25.5624 31.8911 25.7788 32.1075 26.0459 32.1075H26.7956C27.8653 32.1075 28.7356 31.2372 28.7356 30.1674V18.8111L29.7197 19.8354C30.1641 20.298 30.9018 20.3059 31.3558 19.8518L32.6669 18.5407C33.1047 18.103 33.1119 17.3836 32.683 16.9371L17.8036 1.44806C17.0923 0.707577 15.9083 0.706933 15.1964 1.44806L0.316989 16.9371C-0.11188 17.3835 -0.104661 18.1029 0.333105 18.5407L1.64421 19.8518C2.0979 20.3054 2.83541 20.2985 3.2804 19.8354L4.26435 18.8112V21.1597C4.26435 21.4267 4.48082 21.6432 4.74782 21.6432C5.01483 21.6432 5.23129 21.4267 5.23129 21.1597V17.8046L16.1324 6.45674C16.3329 6.24807 16.6663 6.24749 16.8676 6.45674C25.5556 15.5006 23.8356 13.7103 27.7687 17.8045V17.8045ZM31.9831 17.8569L30.672 19.168C30.5863 19.2386 30.5013 19.2378 30.417 19.1655L17.5649 5.78697C17.5649 5.78691 17.5649 5.78691 17.5648 5.78684C17.5641 5.78613 17.5634 5.78555 17.5628 5.78484C16.9811 5.1816 16.0163 5.18186 15.4351 5.78691L4.39915 17.275C4.39889 17.2752 4.39869 17.2756 4.39844 17.2758L2.58311 19.1655C2.49879 19.2378 2.4137 19.2386 2.32796 19.168L1.01686 17.8569C0.948593 17.7886 0.947498 17.6764 1.01435 17.6069L15.8937 2.11789C16.225 1.77308 16.7752 1.77314 17.1063 2.11795L31.9856 17.6068C32.0526 17.6764 32.0515 17.7887 31.9831 17.8569V17.8569Z" fill="#0B1A31"/>
<path d="M23.7799 31.1406H20.9117V25.6665C20.9117 23.2338 18.9326 21.2546 16.4998 21.2546C14.0671 21.2546 12.0879 23.2338 12.0879 25.6665V31.1406H6.20423C5.66764 31.1406 5.2311 30.7041 5.2311 30.1674V23.4159C5.2311 23.1488 5.01463 22.9324 4.74763 22.9324C4.48063 22.9324 4.26416 23.1488 4.26416 23.4159V30.1674C4.26416 31.2372 5.13447 32.1075 6.20423 32.1075H23.7799C24.0469 32.1075 24.2633 31.8911 24.2633 31.624C24.2633 31.357 24.0469 31.1406 23.7799 31.1406ZM13.0549 25.6665C13.0549 23.767 14.6003 22.2216 16.4998 22.2216C18.3993 22.2216 19.9447 23.7671 19.9447 25.6665V31.1406H13.0549V25.6665Z" fill="#0B1A31"/>
</svg>
