<svg width="68" height="69" viewBox="0 0 68 69" fill="none" xmlns="http://www.w3.org/2000/svg">
<path d="M33.5595 8.85582C34.1191 8.85582 34.5725 8.40238 34.5725 7.84277V1.01305C34.5725 0.453442 34.1191 0 33.5595 0C32.9999 0 32.5464 0.453442 32.5464 1.01305V7.84277C32.5464 8.40238 32.9999 8.85582 33.5595 8.85582Z" fill="#186A98" fill-opacity="0.6"/>
<path d="M14.6586 16.0916C15.0544 16.4871 15.6956 16.4871 16.0914 16.0916C16.487 15.6958 16.487 15.0545 16.0914 14.6589L11.2619 9.8293C10.8663 9.43394 10.225 9.43367 9.82922 9.8293C9.43359 10.2251 9.43359 10.8664 9.82922 11.262L14.6586 16.0916Z" fill="#186A98" fill-opacity="0.6"/>
<path d="M7.84291 32.5464H1.01305C0.453442 32.5464 0 32.9998 0 33.5594C0 34.119 0.453442 34.5725 1.01305 34.5725H7.84277C8.40238 34.5725 8.85582 34.119 8.85582 33.5594C8.85582 32.9998 8.40238 32.5464 7.84291 32.5464Z" fill="#186A98" fill-opacity="0.6"/>
<path d="M14.6586 51.0274L9.82922 55.8568C9.43359 56.2526 9.43359 56.8939 9.82922 57.2895C10.225 57.685 10.8662 57.685 11.2619 57.2895L16.0914 52.4601C16.487 52.0643 16.487 51.423 16.0914 51.0274C15.6957 50.632 15.0544 50.632 14.6586 51.0274Z" fill="#186A98" fill-opacity="0.6"/>
<path d="M52.4602 51.0274C52.0644 50.6319 51.4231 50.6319 51.0275 51.0274C50.6318 51.4232 50.6318 52.0645 51.0275 52.4601L55.8569 57.2895C56.2526 57.685 56.8938 57.685 57.2896 57.2895C57.6852 56.8938 57.6852 56.2524 57.2896 55.8568L52.4602 51.0274Z" fill="#186A98" fill-opacity="0.6"/>
<path d="M66.1059 32.5464H59.2762C58.7166 32.5464 58.2631 32.9998 58.2631 33.5594C58.2631 34.119 58.7166 34.5725 59.2762 34.5725H66.1059C66.6655 34.5725 67.1189 34.119 67.1189 33.5594C67.1189 32.9998 66.6654 32.5464 66.1059 32.5464Z" fill="#186A98" fill-opacity="0.6"/>
<path d="M55.8569 9.8293L51.0275 14.6589C50.6318 15.0546 50.6318 15.6959 51.0275 16.0916C51.4232 16.4871 52.0644 16.4871 52.4602 16.0916L57.2896 11.262C57.6852 10.8663 57.6852 10.2249 57.2896 9.8293C56.8938 9.4338 56.2525 9.4338 55.8569 9.8293Z" fill="#186A98" fill-opacity="0.6"/>
<path d="M53.5724 31.5117C53.5724 20.3179 44.5947 11.2111 33.5596 11.2111C29.6941 11.2111 25.9423 12.3313 22.71 14.4504C19.5652 16.5123 17.0582 19.413 15.4602 22.8389C15.2236 23.346 15.443 23.9488 15.9499 24.1853C16.4574 24.4221 17.0598 24.2025 17.2964 23.6955C20.2597 17.3424 26.6434 13.2372 33.5596 13.2372C43.4775 13.2372 51.5463 21.4351 51.5463 31.5117C51.5463 36.2979 49.7376 40.8229 46.4537 44.2528C44.5609 46.2296 42.9498 48.1184 42.5352 50.7651H24.8488C24.3265 48.0175 22.4524 46.0899 20.7683 44.3592C17.4181 40.9162 15.5729 36.3534 15.5729 31.5117C15.5729 30.3162 15.6874 29.1205 15.9128 27.9576C16.0194 27.4084 15.6605 26.8768 15.1111 26.7702C14.5619 26.6645 14.0303 27.0227 13.9237 27.572C13.6735 28.8616 13.5468 30.187 13.5468 31.5117C13.5468 36.8842 15.5958 41.9488 19.3162 45.7722C21.453 47.968 22.9655 49.7207 22.9655 52.2896C22.9655 52.2986 22.9657 52.3078 22.9659 52.3167L23.024 58.2617C23.024 60.1904 24.0529 61.8832 25.5904 62.8207V63.9347C25.5904 66.7278 27.8626 69 30.6557 69H36.869C39.6621 69 41.9343 66.7278 41.9343 63.9347V62.8207C43.4718 61.8832 44.5007 60.1904 44.5007 58.2617C44.5007 58.2617 44.4935 51.6395 44.48 51.5735C44.6722 49.2256 46.0954 47.5568 47.9172 45.6539C51.5638 41.845 53.5724 36.8224 53.5724 31.5117ZM39.9081 63.9347C39.9081 65.6105 38.5446 66.9739 36.8689 66.9739H30.6555C28.9798 66.9739 27.6164 65.6105 27.6164 63.9347V63.5442C27.8594 63.5783 28.1071 63.5971 28.3593 63.5971H39.1652C39.4173 63.5971 39.6651 63.5781 39.9081 63.5442V63.9347ZM39.1652 61.571H28.3593C26.5344 61.571 25.05 60.0865 25.05 58.2617V58.1941H35.3156C35.8752 58.1941 36.3286 57.7407 36.3286 57.1811C36.3286 56.6215 35.8752 56.168 35.3156 56.168H25.05V52.7912H42.4431L42.4745 56.168H40.0431C39.4835 56.168 39.0301 56.6215 39.0301 57.1811C39.0301 57.7407 39.4835 58.1941 40.0431 58.1941H42.4745V58.2617C42.4745 60.0865 40.9899 61.571 39.1652 61.571Z" fill="#186A98" fill-opacity="0.6"/>
<path d="M40.1458 31.6457C39.8027 32.0875 39.8828 32.724 40.3247 33.0671C40.7663 33.4103 41.4028 33.3303 41.746 32.8882L43.7516 30.3055C44.2827 29.6216 44.5156 28.7719 44.4075 27.9127C44.2993 27.0535 43.8632 26.2879 43.1792 25.7568C42.4953 25.2256 41.645 24.9914 40.7863 25.101C39.9271 25.209 39.1615 25.6452 38.6306 26.3292L32.0877 34.7556L28.3327 30.6009C27.1339 29.275 25.0799 29.1715 23.7541 30.3698C23.1117 30.9505 22.7339 31.7465 22.6901 32.6113C22.6465 33.4761 22.9422 34.3061 23.5227 34.9486L29.8713 41.9725C31.1492 43.4548 33.6744 43.3639 34.8368 41.7869L38.8464 36.623C39.1895 36.1812 39.1094 35.5447 38.6676 35.2016C38.2257 34.8585 37.5894 34.9384 37.2462 35.3805L33.2365 40.5443C32.8013 41.1357 31.8516 41.1701 31.3746 40.6139L25.0261 33.5901C24.5766 33.0927 24.6155 32.3225 25.1129 31.873C25.61 31.424 26.3803 31.4624 26.8299 31.9599L31.3954 37.0111C31.7933 37.4725 32.5843 37.446 32.9471 36.953L40.2312 27.572C40.6211 27.0477 41.4297 26.9459 41.9369 27.3574C42.4614 27.7475 42.563 28.5553 42.1515 29.0632L40.1458 31.6457Z" fill="#186A98" fill-opacity="0.6"/>
</svg>
