<svg width="59" height="59" viewBox="0 0 59 59" fill="none" xmlns="http://www.w3.org/2000/svg">
<g clip-path="url(#clip0)">
<path d="M37.2831 38.0751C46.3029 38.0751 53.6415 30.737 53.6415 21.7167C53.6415 12.6969 46.3029 5.3584 37.2831 5.3584C28.2633 5.3584 20.9248 12.6969 20.9248 21.7167C20.9248 30.737 28.2633 38.0751 37.2831 38.0751V38.0751ZM37.2831 7.66309C45.0322 7.66309 51.3368 13.9677 51.3368 21.7167C51.3368 29.4658 45.0322 35.7704 37.2831 35.7704C29.5341 35.7704 23.2295 29.4662 23.2295 21.7167C23.2295 13.9677 29.5341 7.66309 37.2831 7.66309V7.66309Z" fill="#E64652"/>
<path d="M37.1122 43.7756C49.1812 43.7756 59 33.9568 59 21.8878C59 9.81878 49.1812 0 37.1122 0C25.0432 0 15.2244 9.81878 15.2244 21.8878C15.2244 26.4683 16.6397 30.7235 19.0546 34.2422L15.4743 37.8225L14.9868 37.335C14.5366 36.8849 13.807 36.8849 13.3568 37.335L1.72086 48.971C0.611282 50.0806 0 51.5561 0 53.1253C0 54.6945 0.611282 56.1696 1.72086 57.2791C2.83044 58.3887 4.30553 59 5.8747 59C7.44387 59 8.91941 58.3887 10.029 57.2791L21.6654 45.6432C21.8815 45.4271 22.0026 45.1341 22.0026 44.8284C22.0026 44.5228 21.8815 44.2293 21.6654 44.0132L21.1775 43.5257L24.7578 39.9454C28.2765 42.3603 32.5321 43.7756 37.1122 43.7756V43.7756ZM37.1122 2.30469C47.9105 2.30469 56.6953 11.0895 56.6953 21.8878C56.6953 32.6861 47.9105 41.4709 37.1122 41.4709C26.3144 41.4709 17.5291 32.6861 17.5291 21.8878C17.5291 11.0895 26.3144 2.30469 37.1122 2.30469V2.30469ZM8.39951 55.6497C7.72475 56.324 6.82854 56.6953 5.8747 56.6953C4.92087 56.6953 4.02465 56.324 3.35035 55.6497C1.95808 54.2578 1.95808 51.9928 3.35035 50.6005L14.1716 39.7793L14.6591 40.2663C14.6591 40.2668 14.6595 40.2668 14.6595 40.2672L19.2207 44.8284L8.39951 55.6497ZM19.548 41.8958L17.1042 39.452L20.4694 36.0868C21.2189 36.9637 22.0363 37.7811 22.9132 38.5306L19.548 41.8958Z" fill="#E64652"/>
<path d="M33.3384 18.6877C33.9749 18.6877 34.4907 18.1719 34.4907 17.5354C34.4907 16.7423 34.8301 15.9838 35.4212 15.4544C36.0207 14.9174 36.7963 14.6712 37.6061 14.7608C38.8854 14.9021 39.9166 15.9334 40.058 17.2126C40.1822 18.3407 39.6272 19.4251 38.6432 19.9751C37.0939 20.8416 36.131 22.4441 36.131 24.1569V25.8012C36.131 26.4377 36.6469 26.9535 37.2834 26.9535C37.9194 26.9535 38.4357 26.4377 38.4357 25.8012V24.1569C38.4357 23.2778 38.9462 22.4464 39.7681 21.9868C41.5623 20.9834 42.5751 19.01 42.3487 16.9597C42.0899 14.6167 40.2016 12.7289 37.8591 12.47C36.4114 12.3102 34.9616 12.7721 33.8835 13.7376C32.805 14.7036 32.186 16.0878 32.186 17.5354C32.186 18.1719 32.7019 18.6877 33.3384 18.6877Z" fill="#E64652"/>
<path d="M37.283 29.1417C36.98 29.1417 36.6829 29.2651 36.4687 29.4793C36.2544 29.6936 36.1306 29.9911 36.1306 30.2941C36.1306 30.5984 36.254 30.8945 36.4687 31.1088C36.6829 31.324 36.98 31.4464 37.283 31.4464C37.5863 31.4464 37.8834 31.324 38.0977 31.1088C38.312 30.8945 38.4353 30.597 38.4353 30.2941C38.4353 29.9911 38.3124 29.6936 38.0977 29.4793C37.8834 29.2651 37.5863 29.1417 37.283 29.1417Z" fill="#E64652"/>
</g>
<defs>
<clipPath id="clip0">
<rect width="59" height="59" fill="white"/>
</clipPath>
</defs>
</svg>
