<svg width="52" height="59" viewBox="0 0 52 59" fill="none" xmlns="http://www.w3.org/2000/svg">
<path d="M5.0542 9.64402H26.0073C26.4846 9.64402 26.8715 9.25706 26.8715 8.77976V5.05481C26.8715 4.57751 26.4846 4.19055 26.0073 4.19055H5.0542C4.5769 4.19055 4.18994 4.57751 4.18994 5.05481V8.77976C4.18994 9.25706 4.5769 9.64402 5.0542 9.64402V9.64402ZM5.91846 5.91907H25.143V7.9155H5.91846V5.91907Z" fill="#E53C49" fill-opacity="0.95"/>
<path d="M51.7824 29.5C51.7824 24.1035 48.8851 19.3714 44.5647 16.7758V9.47803C44.5647 9.24883 44.4737 9.02896 44.3115 8.86694L35.6978 0.25317C35.5356 0.0910352 35.3159 0 35.0866 0H0.864258C0.386957 0 0 0.386957 0 0.864258V10.4447C0 10.922 0.386957 11.309 0.864258 11.309C1.34156 11.309 1.72852 10.922 1.72852 10.4447V1.72852H34.2227V9.47826C34.2227 9.95556 34.6096 10.3425 35.0869 10.3425H42.8361V15.8866C41.031 15.1031 39.0414 14.6675 36.9516 14.6671C36.9511 14.6671 36.9505 14.667 36.9499 14.667H5.05429C4.57699 14.667 4.19004 15.054 4.19004 15.5313V43.4687C4.19004 43.946 4.57699 44.333 5.05429 44.333H10.2007C10.678 44.333 11.0649 43.946 11.0649 43.4687C11.0649 42.9914 10.678 42.6045 10.2007 42.6045H5.91855V16.3955H30.007C25.3173 18.8901 22.1166 23.8279 22.1166 29.5C22.1166 35.1721 25.3173 40.11 30.007 42.6045H14.2338C13.7564 42.6045 13.3695 42.9914 13.3695 43.4687C13.3695 43.946 13.7564 44.333 14.2338 44.333H32.593V46.3294H5.05429C4.57699 46.3294 4.19004 46.7164 4.19004 47.1937V53.9451C4.19004 54.4224 4.57699 54.8094 5.05429 54.8094H32.593V57.2715H1.72852V14.4779C1.72852 14.0006 1.34156 13.6137 0.864258 13.6137C0.386957 13.6137 0 14.0006 0 14.4779V58.1357C0 58.613 0.386957 59 0.864258 59H43.7003C44.1776 59 44.5646 58.613 44.5646 58.1357V42.2242C48.8851 39.6286 51.7824 34.8965 51.7824 29.5V29.5ZM35.9512 2.95104L41.6141 8.614H35.9512V2.95104ZM36.95 44.333C36.9506 44.333 36.9512 44.3329 36.9517 44.3329C37.8475 44.3327 38.725 44.2528 39.5774 44.0997V46.3294H34.3216V44.333H36.95ZM35.7184 50.52V48.0579H38.1805V50.52H35.7184ZM5.91855 53.0809V48.0579H33.9899V50.52H33.4573C32.98 50.52 32.593 50.907 32.593 51.3843V53.081H5.91855V53.0809ZM34.3215 52.2485H39.5774V57.2715H34.3215V52.2485ZM42.8361 57.2715H41.3059V51.3843C41.3059 50.907 40.9189 50.52 40.4416 50.52H39.909V48.0579H40.4416C40.9189 48.0579 41.3059 47.671 41.3059 47.1937V43.6797C41.8289 43.5187 42.3394 43.329 42.8362 43.1134V57.2715H42.8361ZM36.9494 42.6045C29.7237 42.6045 23.8451 36.7258 23.8451 29.5C23.8451 22.2742 29.7237 16.3955 36.9494 16.3955C44.1752 16.3955 50.0539 22.2742 50.0539 29.5C50.0539 36.7258 44.1752 42.6045 36.9494 42.6045V42.6045Z" fill="#E53C49" fill-opacity="0.95"/>
<path d="M47.1646 30.6598C46.6965 30.5666 46.2415 30.8707 46.1485 31.3389C45.28 35.7081 41.4116 38.8791 36.95 38.8791C31.7778 38.8791 27.5699 34.6718 27.5699 29.5002C27.5699 24.3285 31.7778 20.1212 36.95 20.1212C41.4114 20.1212 45.28 23.2922 46.1485 27.6614C46.2416 28.1294 46.6959 28.4334 47.1646 28.3405C47.6327 28.2474 47.9368 27.7926 47.8438 27.3244C46.8151 22.1491 42.2336 18.3928 36.95 18.3928C30.8247 18.3928 25.8414 23.3756 25.8414 29.5003C25.8414 35.625 30.8247 40.6077 36.95 40.6077C42.2336 40.6077 46.815 36.8514 47.8438 31.6761C47.9368 31.2077 47.6327 30.7529 47.1646 30.6598V30.6598Z" fill="#E53C49" fill-opacity="0.95"/>
</svg>
