<svg width="539" height="537" viewBox="0 0 539 537" fill="none" xmlns="http://www.w3.org/2000/svg">
<g opacity="0.15" filter="url(#filter0_dif)">
<rect x="200.231" y="200.566" width="138.462" height="136.434" rx="10" fill="#3754AA"/>
</g>
<g filter="url(#filter1_ii)">
<rect x="176" y="188" width="138.462" height="136.434" rx="10" fill="white"/>
</g>
<g filter="url(#filter2_d)">
<path fill-rule="evenodd" clip-rule="evenodd" d="M239.581 207.681C239.082 207.597 238.53 207.564 238.355 207.609C238.18 207.653 237.933 207.661 237.805 207.627C237.678 207.593 237.331 207.62 237.034 207.688C236.738 207.756 236.388 207.782 236.257 207.747C236.126 207.712 235.926 207.749 235.811 207.829C235.697 207.908 235.504 207.947 235.383 207.914C235.262 207.882 234.988 207.929 234.774 208.019C234.56 208.109 234.312 208.163 234.223 208.139C234.134 208.115 233.916 208.171 233.737 208.262C233.558 208.354 233.18 208.48 232.896 208.543C231.839 208.777 228.673 210.438 227.093 211.587C225.099 213.038 222.69 215.625 221.465 217.632C221.311 217.885 221.082 218.196 220.956 218.323C220.831 218.451 220.678 218.741 220.617 218.968C220.555 219.196 220.37 219.527 220.205 219.703C220.04 219.88 219.748 220.436 219.556 220.94C219.363 221.443 219.091 221.972 218.95 222.115C218.741 222.327 218.38 223.553 217.013 228.682C215.58 234.06 215.333 235.107 215.335 235.792C215.336 236.234 215.246 237.053 215.134 237.612C215.023 238.171 214.956 238.875 214.987 239.178C215.018 239.481 214.969 240.017 214.877 240.37C214.786 240.722 214.73 241.249 214.753 241.54C214.776 241.832 214.753 242.385 214.703 242.769C214.652 243.153 214.651 243.647 214.7 243.866C214.749 244.084 214.736 244.464 214.67 244.71C214.604 244.956 214.582 245.383 214.62 245.659C214.659 245.935 214.664 246.462 214.632 246.829C214.6 247.196 214.586 247.681 214.601 247.906C214.617 248.131 214.64 248.769 214.654 249.325C214.668 249.88 214.691 250.519 214.706 250.744C214.721 250.968 214.724 251.421 214.713 251.749C214.702 252.077 214.742 252.478 214.801 252.639C214.86 252.8 214.874 253.06 214.832 253.216C214.79 253.373 214.814 253.741 214.884 254.035C214.955 254.328 214.988 254.661 214.958 254.774C214.927 254.888 214.944 255.164 214.996 255.389C215.047 255.613 215.063 255.895 215.031 256.016C214.999 256.136 215.031 256.475 215.101 256.769C215.172 257.062 215.206 257.391 215.177 257.499C215.148 257.607 215.179 257.827 215.245 257.987C215.312 258.148 215.347 258.365 215.324 258.469C215.301 258.573 215.332 258.913 215.393 259.223C215.454 259.534 215.487 259.859 215.466 259.946C215.446 260.033 215.486 260.344 215.557 260.637C215.628 260.931 215.667 261.237 215.646 261.319C215.624 261.4 215.642 261.647 215.686 261.867C215.73 262.087 215.8 262.487 215.842 262.756C215.883 263.024 216.021 263.814 216.146 264.51C216.377 265.787 216.428 266.101 216.587 267.236C216.705 268.083 217.104 268.847 217.481 268.948C217.889 269.058 218.37 268.764 218.576 268.279C218.67 268.061 218.996 267.317 219.301 266.626C219.606 265.935 219.942 265.045 220.047 264.647C220.152 264.25 220.375 263.749 220.544 263.533C220.712 263.317 220.988 262.776 221.157 262.33C221.326 261.884 221.571 261.429 221.702 261.319C221.832 261.209 222.002 260.893 222.078 260.617C222.155 260.341 222.388 259.92 222.596 259.682C222.804 259.443 223.014 259.104 223.064 258.929C223.113 258.754 223.267 258.524 223.405 258.419C223.542 258.313 223.695 258.085 223.743 257.913C223.792 257.741 224.002 257.421 224.21 257.202C224.417 256.983 224.615 256.702 224.648 256.578C224.681 256.454 224.822 256.265 224.959 256.159C225.097 256.053 225.232 255.895 225.257 255.806C225.303 255.651 225.885 254.935 227.15 253.476C227.663 252.884 229.247 251.249 229.679 250.865C230.593 250.054 231.023 249.698 231.377 249.457C231.611 249.299 232.069 248.938 232.395 248.655C233.17 247.983 238.142 245.165 239.199 244.798C239.652 244.641 240.207 244.415 240.434 244.296C240.661 244.178 241.136 243.997 241.491 243.895C241.846 243.793 242.358 243.613 242.629 243.495L243.121 243.279L243.117 243.619C243.115 243.823 242.928 244.229 242.645 244.643C242.388 245.019 242.116 245.555 242.042 245.833C241.968 246.11 241.789 246.468 241.644 246.629C241.5 246.789 241.261 247.238 241.114 247.626C240.967 248.015 240.762 248.393 240.658 248.465C240.555 248.538 240.35 248.915 240.203 249.304C240.056 249.693 239.817 250.142 239.673 250.302C239.528 250.462 239.365 250.762 239.309 250.969C239.254 251.176 239.018 251.599 238.786 251.91C238.553 252.222 238.317 252.645 238.262 252.852C238.207 253.059 238.041 253.359 237.893 253.519C237.745 253.68 237.508 254.08 237.365 254.408C237.222 254.737 236.998 255.096 236.867 255.206C236.735 255.316 236.574 255.604 236.507 255.846C236.441 256.087 236.208 256.5 235.99 256.762C235.773 257.025 235.55 257.405 235.496 257.607C235.442 257.808 235.279 258.105 235.135 258.265C234.991 258.425 234.771 258.802 234.646 259.103C234.521 259.404 234.286 259.793 234.125 259.967C233.963 260.141 233.777 260.482 233.712 260.724C233.647 260.966 233.486 261.254 233.356 261.364C233.225 261.474 232.997 261.857 232.849 262.216C232.7 262.574 232.455 263.002 232.303 263.167C232.151 263.331 231.976 263.654 231.915 263.883C231.854 264.112 231.604 264.588 231.36 264.941C231.116 265.295 230.865 265.767 230.803 265.992C230.74 266.216 230.57 266.518 230.424 266.663C230.279 266.808 230.088 267.186 230 267.502C229.913 267.819 229.633 268.399 229.379 268.791C229.122 269.189 228.824 269.849 228.709 270.28C228.594 270.707 228.342 271.309 228.148 271.618C227.638 272.432 226.238 277.651 226.338 278.367C226.377 278.641 226.361 279.042 226.303 279.258C226.245 279.474 226.256 279.891 226.326 280.184C226.397 280.478 226.426 280.824 226.392 280.953C226.357 281.082 226.395 281.28 226.477 281.394C226.558 281.507 226.598 281.702 226.564 281.827C226.531 281.952 226.547 282.1 226.599 282.155C226.652 282.21 226.786 282.6 226.897 283.021C227.141 283.947 228.618 286.497 229.31 287.189C229.585 287.464 229.865 287.782 229.933 287.897C230 288.012 230.159 288.134 230.285 288.168C230.41 288.201 230.561 288.332 230.62 288.458C230.68 288.585 230.792 288.705 230.87 288.727C230.949 288.748 231.159 288.899 231.338 289.061C231.777 289.459 232.96 290.313 233.33 290.498C233.494 290.58 233.833 290.795 234.083 290.975C234.334 291.155 234.708 291.352 234.916 291.411C235.124 291.471 235.551 291.678 235.866 291.872C236.66 292.362 244.443 294.463 245.254 294.406C245.549 294.386 246.192 294.435 246.683 294.516C247.175 294.597 247.76 294.624 247.983 294.577C248.206 294.529 248.577 294.541 248.806 294.602C249.203 294.709 250.468 294.69 251.474 294.562C251.727 294.53 252.047 294.534 252.184 294.571C252.321 294.608 252.676 294.582 252.973 294.515C253.269 294.447 253.584 294.411 253.672 294.434C253.761 294.458 254.075 294.422 254.372 294.354C254.669 294.287 255.005 294.256 255.119 294.287C255.233 294.317 255.42 294.277 255.535 294.198C255.649 294.118 255.845 294.08 255.971 294.114C256.097 294.147 256.308 294.114 256.44 294.039C256.572 293.964 256.738 293.918 256.809 293.937C256.983 293.984 258.249 293.693 258.566 293.534C258.706 293.463 258.883 293.422 258.96 293.443C259.123 293.486 259.89 293.269 260.83 292.913C261.195 292.775 261.739 292.611 262.04 292.549C262.34 292.487 262.733 292.342 262.913 292.227C263.093 292.112 263.608 291.898 264.058 291.751C265.188 291.382 270.409 288.415 271.88 287.306C272.545 286.805 273.098 286.365 273.107 286.329C273.117 286.293 273.406 286.031 273.751 285.747C274.683 284.978 275.945 283.643 277.472 281.812C277.698 281.541 277.999 281.191 278.142 281.034C278.284 280.877 278.429 280.644 278.463 280.516C278.497 280.388 278.696 280.104 278.903 279.886C279.111 279.667 279.312 279.372 279.35 279.231C279.388 279.09 279.539 278.844 279.687 278.684C279.835 278.524 280.072 278.123 280.214 277.795C280.356 277.466 280.549 277.141 280.642 277.073C280.735 277.005 280.968 276.555 281.158 276.074C281.349 275.592 281.675 274.915 281.883 274.568C282.184 274.066 282.459 273.196 283.241 270.279C284.136 266.94 284.216 266.552 284.158 265.842C284.124 265.414 284.149 264.865 284.213 264.623C284.278 264.38 284.29 264.002 284.24 263.783C284.19 263.564 284.166 263.167 284.187 262.899C284.208 262.632 284.177 262.282 284.119 262.121C284.061 261.96 284.039 261.73 284.072 261.61C284.126 261.409 283.993 260.348 283.85 259.838C283.816 259.718 283.778 259.527 283.766 259.414C283.651 258.4 282.935 255.832 282.356 254.353C282.179 253.901 281.89 253.146 281.714 252.677C281.294 251.552 278.78 247.283 278.068 246.483C277.761 246.138 277.41 245.672 277.289 245.449C277.168 245.225 276.998 245.023 276.911 244.999C276.824 244.976 276.544 244.691 276.29 244.365C276.035 244.039 275.748 243.751 275.653 243.726C275.558 243.7 275.436 243.586 275.382 243.471C275.272 243.234 272.87 241.107 272.646 241.047C272.565 241.025 272.317 240.838 272.094 240.631C271.871 240.424 271.599 240.231 271.489 240.202C271.379 240.172 271.201 240.036 271.093 239.899C270.985 239.762 270.756 239.608 270.583 239.556C270.41 239.504 270.065 239.313 269.815 239.132C269.565 238.951 269.116 238.691 268.817 238.554C268.517 238.417 267.958 238.122 267.573 237.899C267.188 237.676 266.585 237.416 266.232 237.321C265.88 237.227 265.125 236.959 264.555 236.725C263.219 236.179 259.605 235.442 257.999 235.389C257.37 235.368 256.725 235.314 256.566 235.27C256.406 235.225 256.1 235.226 255.885 235.272C255.67 235.317 255.2 235.32 254.839 235.277C254.478 235.235 254.05 235.246 253.888 235.303C253.726 235.36 253.463 235.371 253.304 235.329C253.145 235.286 252.773 235.307 252.476 235.375C251.853 235.517 251.365 235.424 251.335 235.156C251.324 235.054 251.575 234.323 251.894 233.533C252.321 232.472 252.535 231.745 252.711 230.754C252.841 230.017 253.065 228.782 253.208 228.011C253.351 227.24 253.437 226.36 253.401 226.056C253.364 225.751 253.39 225.277 253.458 225.001C253.526 224.724 253.538 224.336 253.485 224.138C253.431 223.94 253.419 223.65 253.458 223.495C253.497 223.339 253.471 222.972 253.401 222.679C253.33 222.385 253.305 222.025 253.344 221.877C253.384 221.73 253.352 221.521 253.274 221.413C253.196 221.304 253.14 221.045 253.148 220.837C253.157 220.628 253.101 220.369 253.023 220.261C252.945 220.152 252.907 219.965 252.94 219.844C252.972 219.724 252.933 219.534 252.854 219.424C252.774 219.313 252.703 219.095 252.695 218.938C252.682 218.678 252.365 217.73 251.972 216.775C251.697 216.107 249.742 212.832 249.595 212.793C249.516 212.772 249.251 212.505 249.005 212.2C248.759 211.895 248.333 211.456 248.059 211.225C246.906 210.252 246.524 209.963 246.322 209.909C246.204 209.877 245.964 209.722 245.788 209.564C245.425 209.236 241.191 207.952 239.581 207.681ZM242.263 214.525C243.525 215.101 244.257 215.631 245.197 216.647C246.142 217.67 247.186 219.541 247.633 221.014C247.88 221.829 248.154 223.023 248.121 223.145C248.099 223.228 248.138 223.536 248.209 223.83C248.28 224.123 248.31 224.463 248.278 224.586C248.245 224.708 248.268 224.942 248.329 225.106C248.39 225.271 248.408 225.689 248.369 226.037C248.331 226.384 248.337 226.835 248.384 227.039C248.431 227.243 248.402 227.663 248.321 227.973C248.24 228.282 248.167 228.895 248.16 229.334C248.14 230.483 247.756 232.295 247.119 234.241C246.647 235.684 246.509 235.982 246.181 236.263C245.97 236.445 245.679 236.584 245.536 236.573C245.392 236.561 245.145 236.63 244.985 236.727C244.826 236.824 244.637 236.887 244.566 236.868C244.495 236.849 244.123 236.96 243.74 237.115C243.356 237.27 242.989 237.382 242.923 237.364C242.857 237.346 242.484 237.46 242.095 237.616C241.705 237.772 240.674 238.169 239.802 238.498C237.894 239.218 232.963 241.952 231.644 243.02C231.14 243.429 230.273 244.131 229.717 244.58C229.162 245.029 228.624 245.495 228.522 245.615C228.42 245.734 228.083 246.066 227.774 246.351C227.464 246.636 226.867 247.258 226.446 247.734C226.025 248.21 225.559 248.727 225.411 248.883C225.263 249.038 225.12 249.249 225.093 249.35C225.066 249.451 224.939 249.581 224.812 249.638C224.685 249.696 224.548 249.863 224.509 250.01C224.469 250.157 224.267 250.457 224.059 250.676C223.851 250.895 223.662 251.146 223.638 251.235C223.614 251.324 223.422 251.586 223.21 251.818C222.999 252.05 222.786 252.382 222.737 252.556C222.688 252.73 222.535 252.958 222.397 253.064C222.26 253.17 222.099 253.428 222.04 253.637C221.981 253.847 221.763 254.213 221.555 254.452C221.347 254.691 221.111 255.122 221.032 255.411C220.952 255.7 220.757 256.099 220.598 256.298C220.44 256.498 220.123 257.122 219.893 257.686C219.517 258.61 219.103 259.507 218.691 260.294C218.462 260.729 218.348 260.361 218.466 259.568C218.523 259.184 218.533 258.698 218.488 258.487C218.443 258.276 218.456 257.918 218.516 257.692C218.576 257.465 218.581 257.087 218.527 256.852C218.473 256.617 218.472 256.135 218.525 255.781C218.577 255.427 218.584 254.965 218.539 254.754C218.494 254.543 218.503 254.198 218.56 253.987C218.616 253.776 218.634 253.253 218.6 252.825C218.565 252.397 218.595 251.832 218.665 251.568C218.736 251.305 218.757 250.917 218.711 250.706C218.666 250.495 218.692 249.937 218.769 249.466C218.847 248.995 218.889 248.351 218.863 248.036C218.837 247.721 218.887 247.196 218.975 246.87C219.062 246.544 219.111 246.007 219.083 245.678C219.055 245.348 219.13 244.593 219.25 244C219.37 243.406 219.454 242.65 219.436 242.32C219.419 241.978 219.54 241.215 219.718 240.55C219.893 239.9 220.049 238.929 220.071 238.361C220.105 237.491 220.306 236.611 221.429 232.408C222.588 228.071 222.798 227.393 223.168 226.791C223.399 226.414 223.677 225.778 223.784 225.377C223.891 224.976 224.098 224.517 224.242 224.357C224.387 224.197 224.623 223.753 224.767 223.371C224.912 222.988 225.154 222.573 225.305 222.448C225.456 222.323 225.621 222.065 225.672 221.874C225.724 221.683 225.935 221.347 226.143 221.128C226.351 220.91 226.554 220.61 226.593 220.463C226.632 220.316 226.769 220.149 226.896 220.091C227.023 220.034 227.162 219.86 227.203 219.705C227.244 219.55 227.378 219.378 227.5 219.323C227.622 219.268 227.8 219.072 227.897 218.887C227.993 218.703 228.172 218.506 228.294 218.451C228.416 218.396 228.535 218.278 228.559 218.188C228.583 218.099 228.695 217.97 228.808 217.903C228.921 217.836 229.311 217.519 229.676 217.199C230.497 216.477 233.176 214.952 234.26 214.589C235.459 214.188 235.484 214.18 236.187 214.019C237.458 213.727 238.398 213.672 239.491 213.825C240.1 213.91 240.631 213.962 240.67 213.94C240.786 213.874 241.05 213.971 242.263 214.525ZM264.258 243.763C264.434 243.891 264.85 244.117 265.183 244.266C265.825 244.554 266.734 245.128 267.252 245.572C267.424 245.72 267.634 245.859 267.719 245.882C267.929 245.938 269.879 247.645 269.933 247.819C269.956 247.896 270.057 247.98 270.157 248.007C270.256 248.033 270.546 248.322 270.801 248.648C271.056 248.973 271.343 249.261 271.438 249.287C271.534 249.312 271.636 249.425 271.666 249.537C271.696 249.649 272.081 250.216 272.522 250.796C272.964 251.377 273.557 252.248 273.842 252.733C274.639 254.092 276.135 257.582 276.263 258.381C276.29 258.55 276.38 258.886 276.462 259.129C276.544 259.372 276.626 259.665 276.644 259.78C276.662 259.895 276.773 260.506 276.892 261.138C277.011 261.77 277.082 262.391 277.05 262.518C277.018 262.646 277.047 262.882 277.113 263.042C277.18 263.203 277.191 263.494 277.139 263.689C277.087 263.884 277.08 264.277 277.124 264.563C277.226 265.223 276.942 267.149 276.494 268.838C275.985 270.761 275.013 273.378 274.633 273.855C274.453 274.08 274.253 274.461 274.188 274.701C274.124 274.941 273.945 275.302 273.789 275.502C273.334 276.09 272.746 276.971 272.578 277.318C272.492 277.495 272.325 277.684 272.207 277.737C272.089 277.79 271.964 277.941 271.928 278.073C271.824 278.461 269.693 280.7 268.331 281.852C265.748 284.036 260.239 286.941 257.323 287.657C257.102 287.711 256.636 287.845 256.286 287.954C255.936 288.063 255.51 288.172 255.339 288.196C255.168 288.221 254.913 288.27 254.773 288.307C254.633 288.343 254.403 288.402 254.263 288.438C254.123 288.474 253.85 288.524 253.657 288.548C253.464 288.572 253.018 288.644 252.665 288.707C251.755 288.871 251.247 288.924 249.873 289.001C249.646 289.014 249.259 289.036 249.012 289.051C248.766 289.065 248.232 289.065 247.825 289.05C247.419 289.035 246.909 289.044 246.692 289.068C246.476 289.093 246.081 289.055 245.816 288.984C245.551 288.913 245.1 288.885 244.814 288.922C244.235 288.998 241.169 288.48 239.616 288.045C237.886 287.56 235.768 286.738 235.405 286.411C235.217 286.242 234.904 286.06 234.709 286.007C234.514 285.955 234.214 285.754 234.042 285.562C233.87 285.369 233.608 285.179 233.459 285.139C233.312 285.099 233.142 284.963 233.083 284.837C233.024 284.71 232.905 284.588 232.82 284.565C232.632 284.515 231.81 283.505 231.303 282.701C230.732 281.796 230.085 279.827 230.207 279.369C230.235 279.266 230.211 278.977 230.154 278.726C229.934 277.758 231.717 271.116 232.473 270.089C232.654 269.843 232.884 269.345 232.984 268.984C233.084 268.622 233.298 268.158 233.458 267.952C233.618 267.747 233.893 267.207 234.069 266.754C234.245 266.3 234.515 265.767 234.67 265.569C234.825 265.371 235.008 264.996 235.078 264.737C235.149 264.477 235.332 264.129 235.486 263.963C235.64 263.797 235.883 263.381 236.026 263.037C236.169 262.694 236.411 262.253 236.563 262.057C236.716 261.861 236.892 261.517 236.955 261.292C237.018 261.067 237.239 260.688 237.447 260.45C237.655 260.211 237.877 259.831 237.94 259.605C238.003 259.379 238.173 259.063 238.317 258.903C238.462 258.743 238.684 258.378 238.81 258.091C238.937 257.805 239.167 257.433 239.322 257.265C239.477 257.097 239.653 256.774 239.714 256.548C239.775 256.322 239.958 255.994 240.119 255.82C240.281 255.645 240.516 255.257 240.64 254.956C240.765 254.655 240.986 254.278 241.13 254.118C241.274 253.957 241.438 253.655 241.494 253.445C241.551 253.236 241.767 252.885 241.974 252.666C242.182 252.447 242.406 252.067 242.472 251.822C242.538 251.577 242.704 251.289 242.842 251.183C242.98 251.077 243.149 250.795 243.217 250.556C243.285 250.316 243.519 249.906 243.737 249.643C243.955 249.381 244.177 249.001 244.231 248.799C244.286 248.597 244.451 248.301 244.598 248.141C244.746 247.981 244.983 247.581 245.126 247.252C245.269 246.923 245.493 246.564 245.625 246.454C245.756 246.344 245.912 246.072 245.971 245.85C246.031 245.627 246.27 245.191 246.503 244.88C246.735 244.569 246.978 244.118 247.042 243.877C247.107 243.637 247.272 243.337 247.409 243.211C247.547 243.085 247.747 242.793 247.855 242.563C248.061 242.12 248.186 242.072 249.687 241.855C250.075 241.799 250.655 241.708 250.977 241.652C251.298 241.597 251.698 241.587 251.865 241.629C252.032 241.672 252.301 241.653 252.463 241.589C252.625 241.524 252.904 241.509 253.083 241.554C253.262 241.599 253.665 241.589 253.979 241.531C254.293 241.473 254.789 241.487 255.081 241.563C255.373 241.639 255.789 241.678 256.007 241.65C256.224 241.622 256.955 241.703 257.629 241.829C259.287 242.14 263.86 243.474 264.258 243.763ZM207.476 249.537C207.321 249.557 206.926 249.703 206.598 249.862C206.081 250.112 205.949 250.258 205.613 250.955C205.338 251.526 205.221 251.922 205.209 252.319C205.196 252.803 205.501 254.846 205.682 255.484C205.716 255.604 205.83 256.086 205.934 256.555C206.039 257.025 206.153 257.507 206.189 257.627C206.427 258.443 207.14 261.04 207.213 261.355C207.261 261.566 207.333 261.777 207.372 261.824C207.411 261.871 207.479 262.07 207.522 262.266C207.566 262.462 207.796 263.175 208.034 263.851C208.271 264.527 208.585 265.432 208.731 265.861C209.408 267.852 210.294 270.142 210.631 270.77C210.778 271.043 210.947 271.429 211.008 271.629C211.07 271.83 211.39 272.554 211.721 273.238C212.052 273.922 212.51 274.888 212.739 275.384C213.641 277.334 217.672 284.123 218.922 285.796C219.361 286.385 219.829 287.03 219.962 287.23C220.095 287.43 220.417 287.85 220.679 288.163C220.94 288.476 221.355 288.978 221.601 289.279C222.904 290.879 224.115 292.268 224.233 292.3C224.256 292.306 224.524 292.588 224.83 292.928C225.135 293.267 225.455 293.564 225.54 293.587C225.625 293.609 225.721 293.714 225.752 293.819C225.784 293.923 226.005 294.19 226.244 294.412C227.111 295.215 229.988 297.713 230.536 298.139C230.845 298.379 231.227 298.696 231.386 298.843C231.544 298.99 231.781 299.139 231.911 299.174C232.042 299.209 232.241 299.343 232.353 299.472C232.466 299.601 232.77 299.827 233.028 299.975C233.287 300.123 233.66 300.364 233.857 300.511C234.321 300.857 234.658 300.727 234.815 300.141C234.907 299.799 234.857 299.644 234.54 299.281C234.326 299.037 234.103 298.824 234.042 298.808C233.926 298.777 232.124 297.299 231.855 297.014C231.768 296.921 231.548 296.718 231.366 296.561C231.184 296.404 230.746 295.988 230.393 295.635C230.04 295.282 229.601 294.87 229.418 294.719C229.234 294.568 229.031 294.33 228.966 294.191C228.901 294.052 228.792 293.923 228.725 293.905C228.616 293.875 227.775 292.944 226.414 291.345C224.09 288.615 220.34 282.9 219.223 280.387C219.019 279.927 218.657 279.198 218.419 278.767C218.182 278.335 217.632 277.134 217.198 276.098C216.764 275.062 216.233 273.836 216.019 273.374C215.64 272.554 214.615 269.838 214.211 268.58C214.1 268.234 213.967 267.82 213.915 267.66C213.399 266.06 212.576 263.157 212.606 263.045C212.616 263.007 212.538 262.732 212.432 262.433C212.168 261.691 211.047 256.207 211.11 255.971C211.138 255.866 211.094 255.688 211.013 255.574C210.931 255.461 210.898 255.241 210.94 255.087C210.981 254.932 210.953 254.718 210.877 254.612C210.801 254.506 210.743 254.258 210.749 254.06C210.76 253.692 210.726 253.451 210.467 252.069C210.224 250.767 209.535 249.955 208.435 249.674C208.062 249.579 207.63 249.517 207.476 249.537Z" fill="url(#paint0_linear)"/>
</g>
<defs>
<filter id="filter0_dif" x="0.230774" y="0.566302" width="538.462" height="536.434" filterUnits="userSpaceOnUse" color-interpolation-filters="sRGB">
<feFlood flood-opacity="0" result="BackgroundImageFix"/>
<feColorMatrix in="SourceAlpha" type="matrix" values="0 0 0 0 0 0 0 0 0 0 0 0 0 0 0 0 0 0 127 0"/>
<feOffset dy="4"/>
<feGaussianBlur stdDeviation="2"/>
<feColorMatrix type="matrix" values="0 0 0 0 0 0 0 0 0 0 0 0 0 0 0 0 0 0 0.25 0"/>
<feBlend mode="normal" in2="BackgroundImageFix" result="effect1_dropShadow"/>
<feBlend mode="normal" in="SourceGraphic" in2="effect1_dropShadow" result="shape"/>
<feColorMatrix in="SourceAlpha" type="matrix" values="0 0 0 0 0 0 0 0 0 0 0 0 0 0 0 0 0 0 127 0" result="hardAlpha"/>
<feOffset dx="-5" dy="-5"/>
<feGaussianBlur stdDeviation="10"/>
<feComposite in2="hardAlpha" operator="arithmetic" k2="-1" k3="1"/>
<feColorMatrix type="matrix" values="0 0 0 0 0.215686 0 0 0 0 0.329412 0 0 0 0 0.666667 0 0 0 0.2 0"/>
<feBlend mode="normal" in2="shape" result="effect2_innerShadow"/>
<feGaussianBlur stdDeviation="100" result="effect3_foregroundBlur"/>
</filter>
<filter id="filter1_ii" x="171" y="183" width="143.462" height="141.434" filterUnits="userSpaceOnUse" color-interpolation-filters="sRGB">
<feFlood flood-opacity="0" result="BackgroundImageFix"/>
<feBlend mode="normal" in="SourceGraphic" in2="BackgroundImageFix" result="shape"/>
<feColorMatrix in="SourceAlpha" type="matrix" values="0 0 0 0 0 0 0 0 0 0 0 0 0 0 0 0 0 0 127 0" result="hardAlpha"/>
<feOffset dx="-5" dy="-5"/>
<feGaussianBlur stdDeviation="10"/>
<feComposite in2="hardAlpha" operator="arithmetic" k2="-1" k3="1"/>
<feColorMatrix type="matrix" values="0 0 0 0 0.215686 0 0 0 0 0.329412 0 0 0 0 0.666667 0 0 0 0.2 0"/>
<feBlend mode="normal" in2="shape" result="effect1_innerShadow"/>
<feColorMatrix in="SourceAlpha" type="matrix" values="0 0 0 0 0 0 0 0 0 0 0 0 0 0 0 0 0 0 127 0" result="hardAlpha"/>
<feOffset dx="-5" dy="-5"/>
<feGaussianBlur stdDeviation="10"/>
<feComposite in2="hardAlpha" operator="arithmetic" k2="-1" k3="1"/>
<feColorMatrix type="matrix" values="0 0 0 0 0.215686 0 0 0 0 0.329412 0 0 0 0 0.666667 0 0 0 0.2 0"/>
<feBlend mode="normal" in2="effect1_innerShadow" result="effect2_innerShadow"/>
</filter>
<filter id="filter2_d" x="180" y="187" width="130.983" height="138.91" filterUnits="userSpaceOnUse" color-interpolation-filters="sRGB">
<feFlood flood-opacity="0" result="BackgroundImageFix"/>
<feColorMatrix in="SourceAlpha" type="matrix" values="0 0 0 0 0 0 0 0 0 0 0 0 0 0 0 0 0 0 127 0"/>
<feOffset/>
<feGaussianBlur stdDeviation="7.5"/>
<feColorMatrix type="matrix" values="0 0 0 0 1 0 0 0 0 0.788235 0 0 0 0 0.231373 0 0 0 0.63 0"/>
<feBlend mode="normal" in2="BackgroundImageFix" result="effect1_dropShadow"/>
<feBlend mode="normal" in="SourceGraphic" in2="effect1_dropShadow" result="shape"/>
</filter>
<linearGradient id="paint0_linear" x1="271.646" y1="223.331" x2="217.777" y2="274.669" gradientUnits="userSpaceOnUse">
<stop stop-color="#FFE9A6"/>
<stop offset="0.462632" stop-color="#FFCC44"/>
<stop offset="0.782948" stop-color="#FFC52F"/>
<stop offset="1" stop-color="#3D6E89"/>
</linearGradient>
</defs>
</svg>
