<svg width="62" height="62" viewBox="0 0 62 62" fill="none" xmlns="http://www.w3.org/2000/svg">
<g clip-path="url(#clip0)">
<path d="M60.382 12.4405C61.2742 12.4405 62 11.7147 62 10.8225V7.16546C62 6.27331 61.2742 5.54749 60.382 5.54749H56.725C55.8328 5.54749 55.107 6.27331 55.107 7.16546V8.08536H52.1044C51.6026 8.08536 51.1958 8.49218 51.1958 8.99399C51.1958 9.4958 51.6026 9.90262 52.1044 9.90262H55.107V10.8225C55.107 11.7147 55.8328 12.4405 56.725 12.4405H57.6449V45.7752H56.725C55.8328 45.7752 55.107 46.5011 55.107 47.3932V48.8557H47.9702L39.7882 9.90262H48.2321C48.7339 9.90262 49.1407 9.4958 49.1407 8.99399C49.1407 8.49218 48.7339 8.08536 48.2321 8.08536H39.4065L38.4855 3.70067C38.2397 2.56719 37.2195 1.74457 36.0597 1.74457H25.819C24.6593 1.74457 23.6391 2.56731 23.392 3.70649L22.4723 8.08536H6.89299V7.16546C6.89299 6.27331 6.16718 5.54749 5.27503 5.54749H1.61797C0.725814 5.54749 0 6.27331 0 7.16546V10.8224C0 11.7146 0.725814 12.4404 1.61797 12.4404H2.53787V45.7751H1.61797C0.725814 45.7752 0 46.5011 0 47.3932V51.0503C0 51.9424 0.725814 52.6682 1.61797 52.6682H5.27503C6.16718 52.6682 6.89299 51.9424 6.89299 51.0503V50.6731H13.5268L13.0302 53.0374H10.858C9.93424 53.0374 9.18262 53.789 9.18262 54.7128V58.5803C9.18262 59.5041 9.93424 60.2557 10.858 60.2557H27.3395C28.2633 60.2557 29.0149 59.5041 29.0149 58.5803V54.7128C29.0149 53.789 28.2633 53.0374 27.3395 53.0374H25.3389L25.7265 50.6731H36.1526L36.5402 53.0374H34.5396C33.6158 53.0374 32.8642 53.789 32.8642 54.7128V58.5803C32.8642 59.5041 33.6158 60.2557 34.5396 60.2557H51.0211C51.9448 60.2557 52.6965 59.5041 52.6965 58.5803V54.7128C52.6965 53.789 51.9448 53.0374 51.0211 53.0374H48.8487L48.3521 50.6731H55.1071V51.0503C55.1071 51.9424 55.8329 52.6682 56.7251 52.6682H60.3821C61.2743 52.6682 62.0001 51.9424 62.0001 51.0503V47.3932C62.0001 46.5011 61.2743 45.7752 60.3821 45.7752H59.4622V12.4405H60.382ZM25.1692 4.08569C25.235 3.78209 25.5083 3.56171 25.819 3.56171H36.0597C36.3703 3.56171 36.6436 3.78209 36.7083 4.07987L37.5496 8.08524H24.3291L25.1692 4.08569ZM1.81726 7.36476H5.07573V10.6232H1.81726V7.36476ZM5.07573 50.851H1.81726V47.5925H5.07573V50.851ZM27.1975 54.8545V58.4383H10.9999V54.8545H13.7679C14.1978 54.8545 14.5687 54.5533 14.6572 54.1327L17.2527 41.7758C17.3559 41.2847 17.0413 40.803 16.5503 40.6999C16.0596 40.5969 15.5774 40.9112 15.4743 41.4023L13.9087 48.8557H6.89299V47.3932C6.89299 46.5011 6.16718 45.7752 5.27503 45.7752H4.35513V12.4405H5.27503C6.16718 12.4405 6.89299 11.7147 6.89299 10.8225V9.90262H22.0905L16.2703 37.6114C16.1671 38.1025 16.4817 38.5842 16.9727 38.6873C17.4644 38.7908 17.9456 38.4759 18.0487 37.9849L23.9473 9.90262H37.9312L46.1131 48.8557H37.6959L37.0964 45.1965C37.0244 44.7573 36.6447 44.4348 36.1997 44.4348H25.6791C25.234 44.4348 24.8544 44.7572 24.7825 45.1965L23.3724 53.7989C23.3293 54.0621 23.4039 54.3309 23.5765 54.5342C23.7492 54.7375 24.0024 54.8546 24.269 54.8546H27.1975V54.8545ZM26.0243 48.8557L26.451 46.2521H35.4279L35.8546 48.8557H26.0243ZM47.2217 54.1327C47.31 54.5533 47.6811 54.8545 48.1109 54.8545H50.879V58.4383H34.6813V54.8545H37.6097C37.8763 54.8545 38.1295 54.7374 38.3022 54.5341C38.4748 54.3308 38.5494 54.0621 38.5063 53.7988L37.994 50.6729H46.495L47.2217 54.1327ZM60.1827 50.851H56.9243V47.5925H60.1827V50.851ZM56.9243 7.36476H60.1827V10.6232H56.9243V7.36476Z" fill="#186A98" fill-opacity="0.6"/>
<path d="M27.3481 37.9346H34.5306C34.803 37.9346 35.0609 37.8125 35.2335 37.6018C35.4061 37.3911 35.4751 37.1143 35.4216 36.8472L34.7257 33.3789C34.6269 32.8869 34.1483 32.5681 33.656 32.6667C33.164 32.7655 32.8452 33.2444 32.9439 33.7364L33.4216 36.1173H28.4571L30.9394 23.7465L32.1808 29.9336C32.2794 30.4256 32.7578 30.7441 33.2504 30.6457C33.7424 30.547 34.0613 30.068 33.9626 29.5761L32.2439 21.0108C32.1177 20.3816 31.5812 19.942 30.9394 19.942C30.2975 19.942 29.761 20.3814 29.6348 21.0108L26.4571 36.8473C26.4036 37.1143 26.4725 37.3912 26.6452 37.6019C26.8178 37.8125 27.0759 37.9346 27.3481 37.9346Z" fill="#186A98" fill-opacity="0.6"/>
</g>
<defs>
<clipPath id="clip0">
<rect width="62" height="62" fill="white"/>
</clipPath>
</defs>
</svg>
