<svg width="338" height="1001" viewBox="0 0 338 1001" fill="none" xmlns="http://www.w3.org/2000/svg">
<g filter="url(#filter0_d)">
<path d="M14.1 110.333C14.1 126.667 15.6555 140.978 18.7667 153.267C21.8778 165.711 26 175.744 31.1333 183.367C36.4222 191.144 42.9555 197.367 50.7333 202.033C58.6667 206.856 66.8333 210.122 75.2333 211.833C83.6333 213.7 93.0444 214.633 103.467 214.633L292.467 214.633L292.467 140.9L114.667 140.9C104.711 140.9 96.2333 140.122 89.2333 138.567C82.3889 137.167 77.1 135.067 73.3667 132.267C69.7889 129.467 67.2222 126.433 65.6667 123.167C64.2667 119.9 63.5667 116.089 63.5667 111.733C63.5667 103.8 67.2222 97.7333 74.5333 93.5333C82 89.4889 95.6111 87.4667 115.367 87.4667L292.467 87.4667L292.467 4.40002L104.867 4.40002C94.2889 4.40001 84.6444 5.41113 75.9333 7.43335C67.2222 9.45557 58.9 12.9556 50.9667 17.9333C43.1889 23.0667 36.6556 29.5222 31.3667 37.3C26.0778 45.2333 21.8778 55.3445 18.7667 67.6333C15.6556 80.0778 14.1 94.3111 14.1 110.333ZM19 246.642L19 326.209L292.467 326.209L292.467 246.642L19 246.642ZM19 348.718L19 410.551L319.767 501.551L319.767 439.951L19 348.718ZM14.1 629.181C14.1 645.514 15.6555 659.825 18.7666 672.114C21.8777 684.559 26 694.592 31.1333 702.214C36.4222 709.992 42.9555 716.214 50.7333 720.881C58.6666 725.703 66.8333 728.97 75.2333 730.681C83.6333 732.548 93.0444 733.481 103.467 733.481L292.467 733.481L292.467 659.748L114.667 659.748C104.711 659.748 96.2333 658.97 89.2333 657.414C82.3889 656.014 77.1 653.914 73.3666 651.114C69.7889 648.314 67.2222 645.281 65.6666 642.014C64.2666 638.748 63.5666 634.937 63.5666 630.581C63.5666 622.648 67.2222 616.581 74.5333 612.381C82 608.337 95.6111 606.314 115.367 606.314L292.467 606.314L292.467 523.248L104.867 523.248C94.2889 523.248 84.6444 524.259 75.9333 526.281C67.2222 528.303 58.9 531.803 50.9666 536.781C43.1889 541.914 36.6555 548.37 31.3666 556.148C26.0778 564.081 21.8778 574.192 18.7666 586.481C15.6555 598.925 14.1 613.159 14.1 629.181ZM19 810.29L82 836.89L110.467 848.323L82 857.19L19 882.39L19 972.923L169.033 897.09L292.467 969.656L292.467 893.356L240.433 871.19L211.267 859.99L240.9 849.723L292.467 829.19L292.467 737.256L154.8 810.056L19 733.756L19 810.29Z" fill="url(#paint0_linear)"/>
</g>
<defs>
<filter id="filter0_d" x="0.100098" y="0.400024" width="337.667" height="1000.52" filterUnits="userSpaceOnUse" color-interpolation-filters="sRGB">
<feFlood flood-opacity="0" result="BackgroundImageFix"/>
<feColorMatrix in="SourceAlpha" type="matrix" values="0 0 0 0 0 0 0 0 0 0 0 0 0 0 0 0 0 0 127 0"/>
<feOffset dx="2" dy="12"/>
<feGaussianBlur stdDeviation="8"/>
<feColorMatrix type="matrix" values="0 0 0 0 0 0 0 0 0 0 0 0 0 0 0 0 0 0 0.25 0"/>
<feBlend mode="normal" in2="BackgroundImageFix" result="effect1_dropShadow"/>
<feBlend mode="normal" in="SourceGraphic" in2="effect1_dropShadow" result="shape"/>
</filter>
<linearGradient id="paint0_linear" x1="829" y1="490.515" x2="20" y2="490.515" gradientUnits="userSpaceOnUse">
<stop offset="0.657023" stop-color="white" stop-opacity="0"/>
<stop offset="0.918203" stop-color="#EBEDEF"/>
</linearGradient>
</defs>
</svg>
