<svg width="56" height="56" viewBox="0 0 56 56" fill="none" xmlns="http://www.w3.org/2000/svg">
<path d="M54.9062 40.9062H49.4922C48.8881 40.9062 48.3984 41.3959 48.3984 42C48.3984 42.6041 48.8881 43.0938 49.4922 43.0938H53.8125V49.6562C53.8125 51.948 51.948 53.8125 49.6562 53.8125C47.3645 53.8125 45.5 51.948 45.5 49.6562V1.09375C45.5 0.489672 45.0103 0 44.4062 0H16.3336H1.09375C0.489672 0 0 0.489672 0 1.09375V49.6562C0 53.1542 2.84583 56 6.34375 56H49.6562C53.1542 56 56 53.1542 56 49.6562V42C56 41.3959 55.5103 40.9062 54.9062 40.9062ZM6.34375 53.8125C4.05202 53.8125 2.1875 51.948 2.1875 49.6562V2.1875H16.3336H43.3125V49.6562C43.3125 51.2451 43.901 52.6983 44.8698 53.8125H6.34375Z" fill="#E53C49" fill-opacity="0.95"/>
<path d="M24.2889 8.19547C24.0855 7.99203 23.8033 7.875 23.5156 7.875C23.228 7.875 22.9458 7.99203 22.7423 8.19547C22.5389 8.39891 22.4219 8.68109 22.4219 8.96875C22.4219 9.25641 22.5389 9.53859 22.7423 9.74203C22.9458 9.94547 23.228 10.0625 23.5156 10.0625C23.8033 10.0625 24.0855 9.94547 24.2889 9.74203C24.4923 9.53859 24.6094 9.25641 24.6094 8.96875C24.6094 8.68109 24.4923 8.39891 24.2889 8.19547Z" fill="#E53C49" fill-opacity="0.95"/>
<path d="M36.7229 7.875H27.7266C27.1225 7.875 26.6328 8.36467 26.6328 8.96875C26.6328 9.57283 27.1225 10.0625 27.7266 10.0625H35.6291V17.5H9.87097V10.0625H18.6758C19.2798 10.0625 19.7695 9.57283 19.7695 8.96875C19.7695 8.36467 19.2798 7.875 18.6758 7.875H8.77722C8.17314 7.875 7.68347 8.36467 7.68347 8.96875V18.5938C7.68347 19.1978 8.17314 19.6875 8.77722 19.6875H36.7229C37.3269 19.6875 37.8166 19.1978 37.8166 18.5938V8.96875C37.8166 8.36467 37.3269 7.875 36.7229 7.875Z" fill="#E53C49" fill-opacity="0.95"/>
<path d="M14.0272 21.8813H8.77722C8.17314 21.8813 7.68347 22.371 7.68347 22.9751V28.2251C7.68347 28.8292 8.17314 29.3188 8.77722 29.3188H14.0272C14.6313 29.3188 15.121 28.8292 15.121 28.2251V22.9751C15.121 22.371 14.6313 21.8813 14.0272 21.8813ZM12.9335 27.1313H9.87097V24.0688H12.9335V27.1313Z" fill="#E53C49" fill-opacity="0.95"/>
<path d="M25.3479 21.8813H20.0979C19.4938 21.8813 19.0042 22.371 19.0042 22.9751V28.2251C19.0042 28.8292 19.4938 29.3188 20.0979 29.3188H25.3479C25.952 29.3188 26.4417 28.8292 26.4417 28.2251V22.9751C26.4417 22.371 25.952 21.8813 25.3479 21.8813ZM24.2542 27.1313H21.1917V24.0688H24.2542V27.1313Z" fill="#E53C49" fill-opacity="0.95"/>
<path d="M36.7229 21.8813H31.4729C30.8688 21.8813 30.3792 22.371 30.3792 22.9751V28.2251C30.3792 28.8292 30.8688 29.3188 31.4729 29.3188H36.7229C37.327 29.3188 37.8166 28.8292 37.8166 28.2251V22.9751C37.8166 22.371 37.327 21.8813 36.7229 21.8813ZM35.6291 27.1313H32.5666V24.0688H35.6291V27.1313Z" fill="#E53C49" fill-opacity="0.95"/>
<path d="M14 31.6191H8.77722C8.17314 31.6191 7.68347 32.1088 7.68347 32.7129C7.68347 33.317 8.17314 33.8066 8.77722 33.8066H14C14.6041 33.8066 15.0937 33.317 15.0937 32.7129C15.0937 32.1088 14.6041 31.6191 14 31.6191Z" fill="#E53C49" fill-opacity="0.95"/>
<path d="M25.3614 31.6191H20.1387C19.5346 31.6191 19.0449 32.1088 19.0449 32.7129C19.0449 33.317 19.5346 33.8066 20.1387 33.8066H25.3614C25.9655 33.8066 26.4552 33.317 26.4552 32.7129C26.4552 32.1088 25.9655 31.6191 25.3614 31.6191Z" fill="#E53C49" fill-opacity="0.95"/>
<path d="M36.7093 31.6191H31.4866C30.8825 31.6191 30.3928 32.1088 30.3928 32.7129C30.3928 33.317 30.8825 33.8066 31.4866 33.8066H36.7093C37.3134 33.8066 37.8031 33.317 37.8031 32.7129C37.8031 32.1088 37.3134 31.6191 36.7093 31.6191Z" fill="#E53C49" fill-opacity="0.95"/>
<path d="M14 35.9941H8.77722C8.17314 35.9941 7.68347 36.4838 7.68347 37.0879C7.68347 37.692 8.17314 38.1816 8.77722 38.1816H14C14.6041 38.1816 15.0937 37.692 15.0937 37.0879C15.0937 36.4838 14.6041 35.9941 14 35.9941Z" fill="#E53C49" fill-opacity="0.95"/>
<path d="M36.7229 41.2441H8.77722C8.17314 41.2441 7.68347 41.7338 7.68347 42.3379V49C7.68347 49.6041 8.17314 50.0938 8.77722 50.0938H36.7229C37.3269 50.0938 37.8166 49.6041 37.8166 49V42.3379C37.8166 41.7338 37.3269 41.2441 36.7229 41.2441ZM35.6291 47.9063H9.87097V43.4316H35.6291V47.9063V47.9063Z" fill="#E53C49" fill-opacity="0.95"/>
<path d="M25.3614 35.9941H20.1387C19.5346 35.9941 19.0449 36.4838 19.0449 37.0879C19.0449 37.692 19.5346 38.1816 20.1387 38.1816H25.3614C25.9655 38.1816 26.4552 37.692 26.4552 37.0879C26.4552 36.4838 25.9655 35.9941 25.3614 35.9941Z" fill="#E53C49" fill-opacity="0.95"/>
<path d="M36.7093 35.9941H31.4866C30.8825 35.9941 30.3928 36.4838 30.3928 37.0879C30.3928 37.692 30.8825 38.1816 31.4866 38.1816H36.7093C37.3134 38.1816 37.8031 37.692 37.8031 37.0879C37.8031 36.4838 37.3134 35.9941 36.7093 35.9941Z" fill="#E53C49" fill-opacity="0.95"/>
<path d="M49.5545 14.8116C49.3511 14.6081 49.0689 14.4911 48.7812 14.4911C48.4936 14.4911 48.2114 14.6081 48.008 14.8116C47.8045 15.015 47.6875 15.2972 47.6875 15.5848C47.6875 15.8736 47.8045 16.1558 48.008 16.3581C48.2114 16.5627 48.4936 16.6797 48.7812 16.6797C49.0689 16.6797 49.3511 16.5627 49.5545 16.3581C49.758 16.1547 49.875 15.8736 49.875 15.5848C49.875 15.2972 49.758 15.0161 49.5545 14.8116Z" fill="#E53C49" fill-opacity="0.95"/>
<path d="M52.7005 0H50.9869C49.1677 0 47.6875 1.48017 47.6875 3.29952V11.5573C47.6875 12.1614 48.1772 12.6511 48.7812 12.6511C49.3853 12.6511 49.875 12.1614 49.875 11.5573V8.20312H53.8125V29.5312H49.875V19.6875C49.875 19.0834 49.3853 18.5938 48.7812 18.5938C48.1772 18.5938 47.6875 19.0834 47.6875 19.6875V30.625C47.6875 30.8091 47.7339 30.9901 47.8225 31.1514L50.885 36.7295C51.077 37.0794 51.4445 37.297 51.8438 37.297C52.243 37.297 52.6104 37.0795 52.8025 36.7295L55.865 31.1514C55.9536 30.9901 56 30.8091 56 30.625V3.29952C56 1.48017 54.5198 0 52.7005 0ZM51.8438 33.9304L50.6295 31.7188H53.058L51.8438 33.9304ZM53.8125 6.01562H49.875V3.29952C49.875 2.68636 50.3739 2.1875 50.987 2.1875H52.7006C53.3136 2.1875 53.8125 2.68636 53.8125 3.29952V6.01562Z" fill="#E53C49" fill-opacity="0.95"/>
</svg>
