<svg width="61" height="60" viewBox="0 0 61 60" fill="none" xmlns="http://www.w3.org/2000/svg">
<path d="M40.5302 19.0028H38.0549V18.3779C38.0549 16.2868 36.3535 14.5855 34.2624 14.5855H12.0436C9.9525 14.5855 8.25125 16.2868 8.25125 18.3779V19.0028H5.77603C2.59115 19.0028 0 21.5938 0 24.7787V46.5027C0 49.6876 2.59115 52.2788 5.77603 52.2788H18.7398L17.7456 57.6486H14.6671C14.0178 57.6486 13.4914 58.1751 13.4914 58.8243C13.4914 59.4735 14.0178 60 14.6671 60H31.6391C32.2883 60 32.8148 59.4735 32.8148 58.8243C32.8148 58.1751 32.2883 57.6486 31.6391 57.6486H28.5606L27.5665 52.2788H40.5302C43.7151 52.2788 46.3062 49.6876 46.3062 46.5027C46.3062 44.0752 46.3062 27.5141 46.3062 24.7787C46.3062 21.5938 43.7151 19.0028 40.5302 19.0028ZM38.055 26.6723H43.9549V44.6093H38.055V26.6723ZM40.5302 21.3542C42.2632 21.3542 43.6987 22.6484 43.9232 24.3209H38.0549V21.3542H40.5302ZM10.6027 18.3778C10.6027 17.5832 11.2491 16.9368 12.0436 16.9368H34.2625C35.0572 16.9368 35.7036 17.5832 35.7036 18.3778V44.6091H10.6027V37.7872C10.6027 37.138 10.0763 36.6115 9.42696 36.6115C8.77761 36.6115 8.25125 37.138 8.25125 37.7872V44.6091H2.35142V26.6723H8.25125V28.3815C8.25125 29.0307 8.77761 29.5572 9.42696 29.5572C10.0763 29.5572 10.6027 29.0307 10.6027 28.3815C10.6027 26.6881 10.6027 22.0336 10.6027 20.1785V18.3778ZM5.77603 21.3542H8.25125V24.3209H2.38293C2.60749 22.6484 4.04303 21.3542 5.77603 21.3542ZM26.1692 57.6486H20.137L21.1312 52.2788H25.1751L26.1692 57.6486ZM40.5302 49.9273C39.1632 49.9273 7.08118 49.9273 5.77591 49.9273C4.04291 49.9273 2.60737 48.6331 2.38281 46.9607H43.9231C43.6987 48.6331 42.2632 49.9273 40.5302 49.9273Z" fill="#186A98" fill-opacity="0.6"/>
<path d="M56.5876 12.7038H51.9983C50.0084 12.7038 48.3897 14.3227 48.3897 16.3125V56.3582C48.3897 58.3481 50.0085 59.9668 51.9983 59.9668H56.5876C58.5775 59.9668 60.1963 58.348 60.1963 56.3582V16.3125C60.1963 14.3226 58.5773 12.7038 56.5876 12.7038ZM57.8449 56.3582C57.8449 57.0514 57.2808 57.6154 56.5876 57.6154H51.9983C51.3051 57.6154 50.7411 57.0514 50.7411 56.3582V53.7661H52.233C52.8822 53.7661 53.4087 53.2397 53.4087 52.5904C53.4087 51.9412 52.8822 51.4147 52.233 51.4147H50.7411V47.2641H53.8378C54.4871 47.2641 55.0135 46.7376 55.0135 46.0884C55.0135 45.4392 54.4871 44.9127 53.8378 44.9127H50.7411V40.762H52.233C52.8822 40.762 53.4087 40.2355 53.4087 39.5863C53.4087 38.937 52.8822 38.4106 52.233 38.4106H50.7411V34.2599H53.8378C54.4871 34.2599 55.0135 33.7335 55.0135 33.0842C55.0135 32.435 54.4871 31.9085 53.8378 31.9085H50.7411V27.7578H52.233C52.8822 27.7578 53.4087 27.2313 53.4087 26.5821C53.4087 25.9329 52.8822 25.4064 52.233 25.4064H50.7411V21.2557H53.8378C54.4871 21.2557 55.0135 20.7292 55.0135 20.0799C55.0135 19.4307 54.4871 18.9042 53.8378 18.9042H50.7411V16.3123C50.7411 15.6191 51.3051 15.055 51.9983 15.055H56.5876C57.2808 15.055 57.8449 15.6191 57.8449 16.3123V56.3582Z" fill="#186A98" fill-opacity="0.6"/>
<path d="M47.3516 2.66192C45.3464 1.45329 44.2626 0 41.8971 0C40.2219 0 7.3603 0 5.69514 0C2.55482 0 0 2.5547 0 5.69502C0 7.22391 0.607607 8.69191 1.74358 9.79049C4.00106 11.9677 6.26924 11.2488 8.87508 11.3902H41.8971C44.2617 11.3902 45.3376 9.94227 47.3516 8.72823C47.3517 8.72823 47.3517 8.72812 47.3517 8.72812C49.4761 7.26542 49.4786 4.12639 47.3516 2.66192ZM39.0086 2.35142V9.03886H10.0508V2.35142H39.0086ZM5.69514 9.03886C3.85151 9.03886 2.35142 7.53877 2.35142 5.69502C2.35142 3.85127 3.85139 2.35142 5.69514 2.35142H7.69937V9.03886H5.69514ZM43.4594 8.55305C42.5342 9.18994 41.6756 9.00652 41.3602 9.03886V2.35142C41.6769 2.38387 42.5333 2.19964 43.4594 2.83722L46.0183 4.59867C46.7961 5.13409 46.7782 6.26853 46.0185 6.79137L43.4594 8.55305Z" fill="#186A98" fill-opacity="0.6"/>
<path d="M15.6142 27.7151H30.692C32.3502 27.7151 33.6991 26.3661 33.6991 24.708V21.9223C33.6991 20.2641 32.3501 18.9152 30.692 18.9152H15.6142C13.956 18.9152 12.6071 20.2642 12.6071 21.9223V24.708C12.607 26.3662 13.956 27.7151 15.6142 27.7151ZM14.9584 21.9223C14.9584 21.5608 15.2526 21.2666 15.6141 21.2666H30.6919C31.0534 21.2666 31.3476 21.5608 31.3476 21.9223V24.708C31.3476 25.0696 31.0534 25.3637 30.6919 25.3637H15.6142C15.2527 25.3637 14.9585 25.0696 14.9585 24.708V21.9223H14.9584Z" fill="#186A98" fill-opacity="0.6"/>
<path d="M19.4001 29.9339H15.7638C14.1056 29.9339 12.7567 31.2829 12.7567 32.941V40.3422C12.7567 42.0005 14.1057 43.3494 15.7638 43.3494H19.4001C21.0584 43.3494 22.4073 42.0004 22.4073 40.3422V32.941C22.4073 31.2829 21.0584 29.9339 19.4001 29.9339ZM20.0558 40.3424C20.0558 40.7039 19.7617 40.9981 19.4001 40.9981H15.7638C15.4023 40.9981 15.1081 40.7039 15.1081 40.3424V32.9412C15.1081 32.5796 15.4023 32.2855 15.7638 32.2855H19.4001C19.7617 32.2855 20.0558 32.5796 20.0558 32.9412V40.3424Z" fill="#186A98" fill-opacity="0.6"/>
<path d="M30.5422 29.9339H26.9059C25.2477 29.9339 23.8988 31.2829 23.8988 32.941V40.3422C23.8988 42.0005 25.2478 43.3494 26.9059 43.3494H30.5423C32.2005 43.3494 33.5494 42.0004 33.5494 40.3422V32.941C33.5493 31.2829 32.2004 29.9339 30.5422 29.9339ZM31.1979 40.3424C31.1979 40.7039 30.9037 40.9981 30.5422 40.9981H26.9059C26.5444 40.9981 26.2502 40.7039 26.2502 40.3424V32.9412C26.2502 32.5796 26.5444 32.2855 26.9059 32.2855H30.5423C30.9038 32.2855 31.198 32.5796 31.198 32.9412V40.3424H31.1979Z" fill="#186A98" fill-opacity="0.6"/>
<path d="M9.42684 31.9102C8.77749 31.9102 8.25113 32.4379 8.25113 33.0873C8.25113 33.7366 8.77749 34.263 9.42684 34.263C10.0762 34.263 10.6025 33.7365 10.6025 33.0873V33.0845C10.6025 32.4351 10.0762 31.9102 9.42684 31.9102Z" fill="#186A98" fill-opacity="0.6"/>
</svg>
