<svg width="61" height="60" viewBox="0 0 61 60" fill="none" xmlns="http://www.w3.org/2000/svg">
<path d="M40.5302 19.0027H38.0549V18.3778C38.0549 16.2867 36.3535 14.5854 34.2624 14.5854H12.0436C9.9525 14.5854 8.25125 16.2867 8.25125 18.3778V19.0027H5.77603C2.59115 19.0027 0 21.5937 0 24.7786V46.5027C0 49.6876 2.59115 52.2787 5.77603 52.2787H18.7398L17.7456 57.6485H14.6671C14.0178 57.6485 13.4914 58.175 13.4914 58.8242C13.4914 59.4735 14.0178 59.9999 14.6671 59.9999H31.6391C32.2883 59.9999 32.8148 59.4735 32.8148 58.8242C32.8148 58.175 32.2883 57.6485 31.6391 57.6485H28.5606L27.5665 52.2787H40.5302C43.7151 52.2787 46.3062 49.6876 46.3062 46.5027C46.3062 44.0752 46.3062 27.514 46.3062 24.7786C46.3062 21.5937 43.7151 19.0027 40.5302 19.0027V19.0027ZM38.055 26.6722H43.9549V44.6092H38.055V26.6722ZM40.5302 21.3541C42.2632 21.3541 43.6987 22.6483 43.9232 24.3208H38.0549V21.3541H40.5302ZM10.6027 18.3777C10.6027 17.5832 11.2491 16.9368 12.0436 16.9368H34.2625C35.0572 16.9368 35.7036 17.5832 35.7036 18.3777V44.6091H10.6027V37.7871C10.6027 37.1379 10.0763 36.6114 9.42696 36.6114C8.77761 36.6114 8.25125 37.1379 8.25125 37.7871V44.6091H2.35142V26.6722H8.25125V28.3815C8.25125 29.0307 8.77761 29.5572 9.42696 29.5572C10.0763 29.5572 10.6027 29.0307 10.6027 28.3815C10.6027 26.6881 10.6027 22.0336 10.6027 20.1784V18.3777ZM5.77603 21.3541H8.25125V24.3208H2.38293C2.60749 22.6483 4.04303 21.3541 5.77603 21.3541ZM26.1692 57.6485H20.137L21.1312 52.2787H25.1751L26.1692 57.6485ZM40.5302 49.9273C39.1632 49.9273 7.08118 49.9273 5.77591 49.9273C4.04291 49.9273 2.60737 48.6331 2.38281 46.9606H43.9231C43.6987 48.6331 42.2632 49.9273 40.5302 49.9273Z" fill="#E53C49" fill-opacity="0.95"/>
<path d="M56.5875 12.7037H51.9983C50.0084 12.7037 48.3896 14.3227 48.3896 16.3125V56.3582C48.3896 58.3481 50.0085 59.9668 51.9983 59.9668H56.5875C58.5774 59.9668 60.1962 58.348 60.1962 56.3582V16.3125C60.1962 14.3226 58.5773 12.7037 56.5875 12.7037V12.7037ZM57.8448 56.3582C57.8448 57.0514 57.2807 57.6154 56.5875 57.6154H51.9983C51.3051 57.6154 50.7411 57.0514 50.7411 56.3582V53.7661H52.2329C52.8822 53.7661 53.4086 53.2396 53.4086 52.5904C53.4086 51.9412 52.8822 51.4147 52.2329 51.4147H50.7411V47.2641H53.8378C54.487 47.2641 55.0135 46.7376 55.0135 46.0884C55.0135 45.4391 54.487 44.9127 53.8378 44.9127H50.7411V40.7619H52.2329C52.8822 40.7619 53.4086 40.2354 53.4086 39.5862C53.4086 38.937 52.8822 38.4105 52.2329 38.4105H50.7411V34.2599H53.8378C54.487 34.2599 55.0135 33.7334 55.0135 33.0842C55.0135 32.435 54.487 31.9085 53.8378 31.9085H50.7411V27.7578H52.2329C52.8822 27.7578 53.4086 27.2313 53.4086 26.582C53.4086 25.9328 52.8822 25.4063 52.2329 25.4063H50.7411V21.2556H53.8378C54.487 21.2556 55.0135 20.7291 55.0135 20.0799C55.0135 19.4307 54.487 18.9042 53.8378 18.9042H50.7411V16.3122C50.7411 15.619 51.3051 15.0549 51.9983 15.0549H56.5875C57.2807 15.0549 57.8448 15.619 57.8448 16.3122V56.3582Z" fill="#E53C49" fill-opacity="0.95"/>
<path d="M47.3516 2.66192C45.3464 1.45329 44.2627 0 41.8971 0C40.2219 0 7.3603 0 5.69514 0C2.55482 0 0 2.5547 0 5.69502C0 7.22391 0.607607 8.6919 1.74358 9.79049C4.00106 11.9677 6.26924 11.2488 8.87508 11.3902H41.8971C44.2617 11.3902 45.3376 9.94227 47.3516 8.72823C47.3517 8.72823 47.3517 8.72812 47.3517 8.72812C49.4761 7.26542 49.4786 4.12639 47.3516 2.66192V2.66192ZM39.0086 2.35142V9.03886H10.0508V2.35142H39.0086ZM5.69514 9.03886C3.85151 9.03886 2.35142 7.53877 2.35142 5.69502C2.35142 3.85127 3.85139 2.35142 5.69514 2.35142H7.69937V9.03886H5.69514ZM43.4594 8.55305C42.5342 9.18994 41.6756 9.00652 41.3602 9.03886V2.35142C41.6769 2.38387 42.5333 2.19964 43.4594 2.83722L46.0183 4.59867C46.7961 5.13409 46.7782 6.26853 46.0185 6.79137L43.4594 8.55305Z" fill="#E53C49" fill-opacity="0.95"/>
<path d="M15.6142 27.7151H30.6919C32.3502 27.7151 33.6991 26.3661 33.6991 24.708V21.9223C33.6991 20.2641 32.35 18.9152 30.6919 18.9152H15.6142C13.9559 18.9152 12.6071 20.2642 12.6071 21.9223V24.708C12.6069 26.3662 13.9559 27.7151 15.6142 27.7151ZM14.9584 21.9223C14.9584 21.5607 15.2525 21.2666 15.6141 21.2666H30.6918C31.0534 21.2666 31.3475 21.5607 31.3475 21.9223V24.708C31.3475 25.0695 31.0534 25.3637 30.6918 25.3637H15.6142C15.2526 25.3637 14.9585 25.0695 14.9585 24.708V21.9223H14.9584Z" fill="#E53C49" fill-opacity="0.95"/>
<path d="M19.4002 29.934H15.7638C14.1056 29.934 12.7567 31.283 12.7567 32.9411V40.3423C12.7567 42.0005 14.1057 43.3494 15.7638 43.3494H19.4002C21.0584 43.3494 22.4073 42.0004 22.4073 40.3423V32.9411C22.4073 31.283 21.0584 29.934 19.4002 29.934ZM20.0559 40.3424C20.0559 40.7039 19.7617 40.9981 19.4002 40.9981H15.7638C15.4023 40.9981 15.1081 40.7039 15.1081 40.3424V32.9412C15.1081 32.5797 15.4023 32.2855 15.7638 32.2855H19.4002C19.7617 32.2855 20.0559 32.5797 20.0559 32.9412V40.3424Z" fill="#E53C49" fill-opacity="0.95"/>
<path d="M30.5422 29.934H26.9059C25.2477 29.934 23.8988 31.283 23.8988 32.9411V40.3423C23.8988 42.0005 25.2478 43.3494 26.9059 43.3494H30.5423C32.2005 43.3494 33.5494 42.0004 33.5494 40.3423V32.9411C33.5493 31.283 32.2004 29.934 30.5422 29.934ZM31.1978 40.3424C31.1978 40.7039 30.9037 40.9981 30.5422 40.9981H26.9059C26.5444 40.9981 26.2502 40.7039 26.2502 40.3424V32.9412C26.2502 32.5797 26.5444 32.2855 26.9059 32.2855H30.5423C30.9038 32.2855 31.198 32.5797 31.198 32.9412V40.3424H31.1978Z" fill="#E53C49" fill-opacity="0.95"/>
<path d="M9.42681 31.9102C8.77746 31.9102 8.2511 32.4379 8.2511 33.0873C8.2511 33.7366 8.77746 34.263 9.42681 34.263C10.0762 34.263 10.6025 33.7365 10.6025 33.0873V33.0845C10.6025 32.4351 10.0762 31.9102 9.42681 31.9102Z" fill="#E53C49" fill-opacity="0.95"/>
</svg>
